<?xml version="1.0" encoding="utf-8"?>
<!-- Svg Vector Icons : http://www.onlinewebfonts.com/icon -->
<!DOCTYPE svg PUBLIC "-//W3C//DTD SVG 1.1//EN" "http://www.w3.org/Graphics/SVG/1.1/DTD/svg11.dtd">
<svg version="1.1" xmlns="http://www.w3.org/2000/svg" xmlns:xlink="http://www.w3.org/1999/xlink" x="0px" y="0px" viewBox="0 0 1000 1000" enable-background="new 0 0 1000 1000" xml:space="preserve">
<metadata> Svg Vector Icons : http://www.onlinewebfonts.com/icon </metadata>
<g><g transform="translate(0.000000,511.000000) scale(0.100000,-0.100000)"><path d="M4355.4,5002.3c-1048.3-92.1-1628.5-216.6-2059.3-443.2c-381-201.7-540.3-473.1-453.2-779.4c39.8-151.9,244-361.1,460.7-475.6c988.6-517.9,3648-600.1,5020-151.9c804.3,261.5,1085.7,744.5,687.3,1180.3c-273.9,298.8-913.9,515.4-1862.6,625C5829.5,4994.8,4611.8,5024.7,4355.4,5002.3z M5981.4,4330c433.3-42.3,816.7-112.1,1098.1-201.7c239-74.7,445.7-174.3,425.8-204.2c-22.4-37.4-363.5-169.3-572.7-224.1c-296.3-74.7-754.5-144.4-1170.3-179.3c-473.1-37.4-1511.5-17.4-1929.8,39.8c-565.3,74.7-1147.9,229.1-1307.3,346.1c-44.8,32.4-39.8,37.4,77.2,97.1C3224.9,4317.5,4676.6,4459.4,5981.4,4330z"/><path d="M1678.5,2634.2C460.9,1252.2,196.9-687.6,1008.7-2311.1c535.4-1070.7,1466.7-1882.5,2592.2-2258.5c943.7-313.7,2056.8-291.3,2970.7,59.8c1588.7,615,2671.9,2012,2866.1,3700.3c42.3,383.5,15,981.1-62.2,1359.6c-119.5,567.7-343.6,1105.6-654.9,1571.3c-154.4,234.1-433.3,580.2-562.8,699.7l-62.2,57.3l-161.9-87.2c-89.7-47.3-231.6-109.6-311.3-139.4l-149.4-54.8l216.6-214.1C8728,1349.3,9086.5-157.2,8625.9-1546.6c-428.3-1287.4-1509-2243.6-2876-2539.9c-303.8-67.2-1190.3-67.2-1494.1,0c-664.9,144.4-1287.4,453.2-1768,874C821.9-1748.3,739.8,784.1,2303.5,2367.8l226.6,229.1l-176.8,67.2c-97.1,37.4-236.6,99.6-306.3,139.4c-72.2,39.8-137,72.2-141.9,72.2C1897.6,2875.8,1795.6,2766.2,1678.5,2634.2z"/><path d="M3182.5,990.8C2784.1,786.6,2719.4,261.2,3058-45.1c94.6-84.7,296.3-166.8,413.4-166.8c119.5,0,318.7,82.2,415.8,169.3c211.7,191.7,276.4,490.5,159.4,739.6C3894.7,1025.6,3511.2,1155.1,3182.5,990.8z"/><path d="M6260.3,1005.7C5969,861.3,5834.5,545,5929.1,226.3c47.3-156.9,249-348.6,415.8-398.4c166.8-49.8,209.2-49.8,366-2.5c423.3,124.5,590.2,637.5,326.2,988.6C6870.4,1038.1,6504.3,1127.7,6260.3,1005.7z"/><path d="M2871.3-1529.2c-42.3-24.9-97.1-87.1-119.5-139.5c-94.6-194.2,10-358.6,390.9-612.6c293.8-196.7,513-303.8,821.7-408.4c351.1-117.1,635-161.9,1035.9-161.9c682.3,0,1242.6,166.8,1812.8,537.9c278.9,179.3,445.7,346.1,468.1,463.2c34.9,181.8-122,368.5-311.3,368.5c-94.6,0-154.4-32.4-398.4-224.1c-336.2-261.5-829.2-450.7-1312.3-503c-612.6-67.2-1292.4,117.1-1795.4,483.1c-99.6,72.2-216.7,156.9-259,189.2C3110.3-1469.5,2975.9-1464.5,2871.3-1529.2z"/></g></g>
</svg>