<?xml version="1.0" encoding="utf-8"?>
<!-- Svg Vector Icons : http://www.onlinewebfonts.com/icon -->
<!DOCTYPE svg PUBLIC "-//W3C//DTD SVG 1.1//EN" "http://www.w3.org/Graphics/SVG/1.1/DTD/svg11.dtd">
<svg version="1.1" xmlns="http://www.w3.org/2000/svg" xmlns:xlink="http://www.w3.org/1999/xlink" x="0px" y="0px" viewBox="0 0 1000 1000" enable-background="new 0 0 1000 1000" xml:space="preserve">
<metadata> Svg Vector Icons : http://www.onlinewebfonts.com/icon </metadata>
<g><g transform="translate(0.000000,511.000000) scale(0.100000,-0.100000)"><path d="M4323.8,4976.2c-2054.4-315.4-3689.1-1829.5-4117-3820.7C75.2,538.4,64.2-221.4,179.4-808.4c395-2016,1963.9-3557.4,3990.8-3927.7c386.7-71.3,1286.4-71.3,1673.1,0C7683.8-4401.5,9173.1-3079.4,9708-1307.6c156.3,515.7,192,781.7,192,1415.3c0,633.6-35.7,899.6-192,1415.3C9181.4,3273,7735.9,4575.8,5922.9,4935.1C5530.7,5014.6,4707.8,5033.9,4323.8,4976.2z M5610.2,4274.1c866.7-117.9,1736.2-554,2372.5-1190.4c567.8-567.8,992.9-1352.2,1152-2136.7c101.5-501.9,101.5-1176.7,0-1681.4c-159.1-779-584.2-1566.1-1152-2133.9s-1355-992.9-2133.9-1152c-504.7-101.5-1179.4-101.5-1681.4,0c-1228.8,252.3-2314.9,1069.7-2888.2,2180.5c-537.6,1036.8-628.1,2186-260.6,3291.4C1432.9,2697,2417.6,3681.6,3662.8,4095.8C4310.1,4309.8,4921.8,4367.3,5610.2,4274.1z"/><path d="M2299.6,1643.7c-213.9-128.9-230.4-449.8-30.2-581.5c35.6-24.7,444.3-145.4,907.9-268.8c924.3-246.9,971-252.3,1110.8-109.7c150.9,150.9,128.9,400.5-49.4,523.9c-71.3,52.1-1675.9,491-1788.3,491C2414.8,1698.6,2349,1673.9,2299.6,1643.7z"/><path d="M6652.5,1476.4c-444.3-120.7-839.3-241.4-877.7-268.8c-178.3-123.4-200.2-373-49.4-523.9c139.9-142.6,186.5-137.1,1110.8,109.7c463.5,126.2,872.2,244.1,907.9,268.8c268.8,175.6,117.9,644.6-205.7,633.6C7497.3,1695.8,7096.8,1597.1,6652.5,1476.4z"/><path d="M4430.8-657.5C3616.2-833,2903-1409,2562.9-2157.9c-96-208.4-101.5-331.9-19.2-436.1c120.7-156.3,49.4-150.9,2463-150.9s2342.4-5.5,2463.1,150.9c82.3,104.2,76.8,227.6-19.2,438.8C7132.5-1455.7,6466-896.2,5706.2-687.7C5390.8-599.9,4757.2-586.2,4430.8-657.5z M5514.2-1359.7c298.9-79.6,603.4-249.6,831.1-469l211.2-200.2l-1544.2-2.7H3468.1l57.6,76.8c222.2,282.5,721.4,556.8,1157.5,636.3C4875.1-1285.6,5308.5-1307.6,5514.2-1359.7z"/></g></g>
</svg>