<?xml version="1.0" encoding="utf-8"?>
<!-- Svg Vector Icons : http://www.onlinewebfonts.com/icon -->
<!DOCTYPE svg PUBLIC "-//W3C//DTD SVG 1.1//EN" "http://www.w3.org/Graphics/SVG/1.1/DTD/svg11.dtd">
<svg version="1.1" xmlns="http://www.w3.org/2000/svg" xmlns:xlink="http://www.w3.org/1999/xlink" x="0px" y="0px" viewBox="0 0 1000 1000" enable-background="new 0 0 1000 1000" xml:space="preserve">
<metadata> Svg Vector Icons : http://www.onlinewebfonts.com/icon </metadata>
<g><g transform="translate(0.000000,511.000000) scale(0.100000,-0.100000)"><path d="M4322.1,4974.2C2268.5,4658.9,634.5,3145.5,206.8,1155.1C75.2,538.2,64.2-221.3,179.4-808c394.8-2015.1,1960.3-3555.9,3989.1-3926.1c386.6-71.3,1285.8-71.3,1672.4,0c1011.7,183.7,1905.5,652.5,2629.3,1376.3C9194-2633.9,9662.9-1740.2,9846.5-728.5c71.3,386.6,71.3,1285.8,0,1672.4c-244,1343.4-1006.2,2508.6-2130.3,3257.1c-512.7,340-1168,608.7-1795.8,732C5528.4,5012.6,4705.9,5031.8,4322.1,4974.2z M5676.4,4261.4c1307.8-200.1,2467.5-1044.6,3076.2-2240c1165.2-2286.6,19.2-5094-2404.5-5900.1C4815.6-4385.9,3162.3-3999.3,2030-2867c-1645,1647.7-1645,4304.4,0,5949.4C2992.3,4044.8,4308.3,4469.7,5676.4,4261.4z"/><path d="M3000.6,1566.3c-512.7-266-501.7-970.6,16.5-1247.5c153.5-82.3,449.6-82.3,605.9,0c238.5,126.1,370.1,329,389.3,600.4C4047.9,1451.2,3477.6,1815.8,3000.6,1566.3z"/><path d="M6389.3,1577.3c-257.7-117.9-411.3-375.6-392.1-658c19.2-274.2,145.3-471.6,389.3-600.4c156.3-82.3,452.4-82.3,605.9,0c315.3,167.2,466.1,526.4,359.2,847.2C7220,1566.3,6773.1,1755.5,6389.3,1577.3z"/><path d="M5671-824.4c-422.2-43.9-882.8-189.2-1242-389.3c-499-276.9-1096.7-896.5-1140.5-1176.2c-35.6-244,260.5-455.1,493.5-350.9c38.4,19.2,131.6,115.2,205.6,216.6c474.3,636.1,1189.9,995.2,1976.7,995.2c372.9,0,614.2-49.3,959.6-189.2c304.3-123.4,405.8-117.9,542.9,30.2c74,79.5,87.7,115.2,87.7,230.3c0,164.5-63.1,252.2-255,351C6855.4-882,6208.3-769.6,5671-824.4z"/></g></g>
</svg>