<?xml version="1.0" encoding="utf-8"?>
<!-- Svg Vector Icons : http://www.onlinewebfonts.com/icon -->
<!DOCTYPE svg PUBLIC "-//W3C//DTD SVG 1.1//EN" "http://www.w3.org/Graphics/SVG/1.1/DTD/svg11.dtd">
<svg version="1.1" xmlns="http://www.w3.org/2000/svg" xmlns:xlink="http://www.w3.org/1999/xlink" x="0px" y="0px" viewBox="0 0 1000 1000" enable-background="new 0 0 1000 1000" xml:space="preserve">
<metadata> Svg Vector Icons : http://www.onlinewebfonts.com/icon </metadata>
<g><g transform="translate(0.000000,511.000000) scale(0.100000,-0.100000)"><path d="M4322.1,4974.2C2268.5,4658.9,634.5,3145.5,206.8,1155.1C75.2,538.2,64.2-221.3,179.4-808c394.8-2015.1,1960.3-3555.9,3989.1-3926.1c386.6-71.3,1285.8-71.3,1672.4,0c1011.7,183.7,1905.5,652.5,2629.3,1376.3C9194-2633.9,9662.9-1740.2,9846.5-728.5c71.3,386.6,71.3,1285.8,0,1672.4c-244,1343.4-1006.2,2508.6-2130.3,3257.1c-512.7,340-1168,608.7-1795.8,732C5528.4,5012.6,4705.9,5031.8,4322.1,4974.2z M5676.4,4261.4c1307.8-200.1,2467.5-1044.6,3076.2-2240c1165.2-2286.6,19.2-5094-2404.5-5900.1C4815.6-4385.9,3162.3-3999.3,2030-2867c-1645,1647.7-1645,4304.4,0,5949.4C2992.3,4044.8,4308.3,4469.7,5676.4,4261.4z"/><path d="M3195.2,1643.1c-348.2-74-575.8-348.2-575.8-699.1c0-205.6,65.8-356.4,219.3-501.7c435.9-425,1178.9-109.7,1178.9,499C4017.7,1388.1,3614.7,1730.8,3195.2,1643.1z"/><path d="M6545.6,1640.3c-441.4-85-688.2-597.7-482.6-1006.2c213.8-427.7,784.1-518.2,1124.1-178.2c131.6,131.6,181,244,197.4,446.9c8.2,145.3,0,208.4-49.3,323.5C7203.6,1533.4,6877.3,1703.4,6545.6,1640.3z"/><path d="M3592.8-865.6c-414-76.8-992.5-337.2-1083-488c-139.8-227.6,16.5-520.9,276.9-520.9c65.8,0,189.2,41.1,331.7,112.4c658,320.8,1055.5,298.8,1817.7-106.9c545.6-287.9,976-392.1,1447.6-348.2c403,38.4,1096.7,326.3,1200.8,499c106.9,175.5,30.2,422.2-153.5,499c-137.1,54.8-161.8,52.1-452.4-85c-364.6-170-647.1-241.3-891-222.1c-257.7,19.2-471.6,93.2-915.7,318.1c-422.2,211.1-638.8,290.6-934.9,345.4C3987.6-818.9,3842.3-818.9,3592.8-865.6z"/></g></g>
</svg>