<?xml version="1.0" encoding="utf-8"?>
<!-- Svg Vector Icons : http://www.onlinewebfonts.com/icon -->
<!DOCTYPE svg PUBLIC "-//W3C//DTD SVG 1.1//EN" "http://www.w3.org/Graphics/SVG/1.1/DTD/svg11.dtd">
<svg version="1.1" xmlns="http://www.w3.org/2000/svg" xmlns:xlink="http://www.w3.org/1999/xlink" x="0px" y="0px" viewBox="0 0 1000 1000" enable-background="new 0 0 1000 1000" xml:space="preserve">
<metadata> Svg Vector Icons : http://www.onlinewebfonts.com/icon </metadata>
<g><g transform="translate(0.000000,511.000000) scale(0.100000,-0.100000)"><path d="M4322.1,4974.2C2268.5,4658.9,634.5,3145.5,206.8,1155.1C75.2,538.2,64.2-221.3,179.4-808c394.8-2015.1,1960.3-3555.9,3989.1-3926.1c386.6-71.3,1285.8-71.3,1672.4,0c1011.7,183.7,1905.5,652.5,2629.3,1376.3C9194-2633.9,9662.9-1740.2,9846.5-728.5c71.3,386.6,71.3,1285.8,0,1672.4c-244,1343.4-1006.2,2508.6-2130.3,3257.1c-512.7,340-1168,608.7-1795.8,732C5528.4,5012.6,4705.9,5031.8,4322.1,4974.2z M5676.4,4261.4c1307.8-200.1,2467.5-1044.6,3076.2-2240c1165.2-2286.6,19.2-5094-2404.5-5900.1C4815.6-4385.9,3162.3-3999.3,2030-2867c-1645,1647.7-1645,4304.4,0,5949.4C2992.3,4044.8,4308.3,4469.7,5676.4,4261.4z"/><path d="M3000.6,1566.3c-512.7-266-501.7-970.6,16.5-1247.5c153.5-82.3,449.6-82.3,605.9,0c238.5,126.1,370.1,329,389.3,600.4C4047.9,1451.2,3477.6,1815.8,3000.6,1566.3z"/><path d="M6389.3,1577.3c-257.7-117.9-411.3-375.6-392.1-658c19.2-274.2,145.3-471.6,389.3-600.4c156.3-82.3,452.4-82.3,605.9,0c315.3,167.2,466.1,526.4,359.2,847.2C7220,1566.3,6773.1,1755.5,6389.3,1577.3z"/><path d="M3038.9-1071.2c-257.7-156.3-213.8-551.1,71.3-630.6c54.8-16.5,907.5-164.5,1897.2-329c1921.9-323.5,1902.7-320.8,2045.3-186.4c71.3,65.8,126.1,235.8,101.4,312.5c-35.7,109.7-76.8,175.5-137.1,216.6c-52.1,32.9-3709.5,671.7-3852.1,671.7C3143.1-1016.3,3088.3-1041,3038.9-1071.2z"/></g></g>
</svg>