<?xml version="1.0" encoding="utf-8"?>
<!-- Svg Vector Icons : http://www.onlinewebfonts.com/icon -->
<!DOCTYPE svg PUBLIC "-//W3C//DTD SVG 1.1//EN" "http://www.w3.org/Graphics/SVG/1.1/DTD/svg11.dtd">
<svg version="1.1" xmlns="http://www.w3.org/2000/svg" xmlns:xlink="http://www.w3.org/1999/xlink" x="0px" y="0px" viewBox="0 0 1000 1000" enable-background="new 0 0 1000 1000" xml:space="preserve">
<metadata> Svg Vector Icons : http://www.onlinewebfonts.com/icon </metadata>
<g><g transform="translate(0.000000,511.000000) scale(0.100000,-0.100000)"><path d="M854.1,4966c-149.8-93-165.3-139.4-165.3-467.4c0-162.7,18.1-857.3,41.3-1541.6l41.3-1244.6l-90.4-227.2c-315-805.6-384.8-1740.4-198.8-2636.4c113.6-542.3,413.2-1221.4,741.1-1683.6c214.3-297,645.6-751.4,924.4-970.9C3550-4900.7,5419.5-5096.9,7028.2-4319.7c501,242.7,898.6,537.1,1322.1,976.1c330.5,346,560.4,671.4,782.4,1115.5c366.7,730.8,513.9,1409.9,482.9,2233.6c-20.7,560.4-108.5,1001.9-294.4,1482.2l-90.4,227.2l41.3,1296.3c56.8,1719.8,54.2,1771.4-12.9,1859.2c-80.1,100.7-196.3,152.3-302.1,134.3c-62-7.8-371.9-198.8-914.1-560.3l-821.1-547.4L6943,4028.6c-1216.3,573.3-2667.5,573.3-3883.7,0l-278.9-131.7l-823.7,547.4C1063.3,5040.8,1009.1,5064.1,854.1,4966z M2132.3,3527.7l627.5-418.3l144.6,93c366.7,232.4,929.6,449.3,1412.5,537.1c356.3,67.1,1012.2,67.1,1368.6,0c480.3-87.8,1045.8-304.7,1409.9-537.1l142-90.4l692.1,462.2c379.6,255.6,697.2,457,702.3,451.9c7.8-7.8-5.1-557.8-25.8-1224L8564.6,1591l100.7-245.3c591.3-1451.2,291.8-3090.9-777.3-4219.3C7113.4-3692.2,6111.5-4126,5001.2-4126c-1107.8,0-2104.5,431.2-2884.3,1247.2C1045.2-1755.6,737.9-51.3,1347.3,1374.1l87.8,206.6L1399,2709.1c-20.7,622.3-38.7,1174.9-38.7,1231.7v98.1l72.3-46.5C1471.3,3969.2,1786.3,3757.5,2132.3,3527.7z"/><path d="M2398.3,1234.6c-87.8-82.6-95.5-100.7-95.5-232.4c0-126.5,10.3-152.4,80-224.7c72.3-72.3,160.1-100.7,890.9-297c544.8-147.2,834-211.7,883.1-201.4c103.3,20.7,216.9,126.5,250.5,232.4c25.8,74.9,23.2,111-10.3,204c-25.8,62-72.3,131.7-108.5,152.3c-82.6,56.8-1575.2,454.5-1699.1,454.5C2519.7,1322.4,2473.2,1301.8,2398.3,1234.6z"/><path d="M6542.8,1118.4c-408-111-772.1-216.9-805.7-235c-93-49.1-149.8-152.3-152.4-273.7c-2.6-134.3,64.6-235,204-304.7l98.1-49.1l816,216.9c730.8,193.7,826.3,224.6,906.3,299.5c82.6,74.9,90.4,93,90.4,227.2c0,136.9-7.7,152.3-95.5,235c-80,72.3-116.2,87.8-206.6,85.2C7335.5,1319.9,6950.8,1226.9,6542.8,1118.4z"/><path d="M2279.5-875c-162.7-142-154.9-281.5,49.1-710.1c446.7-952.9,1324.7-1577.8,2380.8-1691.4c684.3-72.3,1397,105.9,1983.1,500.9c201.4,134.3,550,475.1,710.1,689.5c160.1,216.9,312.4,503.5,402.8,756.6c62,178.2,67.1,211.7,38.7,302.1c-15.5,54.2-67.1,131.7-111,167.8c-74.9,62-98.1,69.7-240.1,56.8c-85.2-5.2-289.2-36.2-451.9-64.6c-697.2-123.9-994.2-147.2-2027.1-147.2c-1053.5,0-1371.2,25.8-2096.8,157.5C2457.7-774.3,2390.5-774.3,2279.5-875z M3735.9-1639.4c792.7-85.2,2349.8-54.2,3090.9,67.2l134.3,20.6l-43.9-80c-23.2-43.9-154.9-191.1-289.2-325.4c-276.3-276.3-511.3-423.5-859.9-544.8c-684.3-235-1464.1-134.3-2058,268.5c-206.6,139.4-645.6,596.5-645.6,668.8c0,7.7,62,2.6,136.9-7.7C3273.7-1585.1,3516.4-1616.1,3735.9-1639.4z"/></g></g>
</svg>