<?xml version="1.0" encoding="utf-8"?>
<!-- Svg Vector Icons : http://www.onlinewebfonts.com/icon -->
<!DOCTYPE svg PUBLIC "-//W3C//DTD SVG 1.1//EN" "http://www.w3.org/Graphics/SVG/1.1/DTD/svg11.dtd">
<svg version="1.1" xmlns="http://www.w3.org/2000/svg" xmlns:xlink="http://www.w3.org/1999/xlink" x="0px" y="0px" viewBox="0 0 1000 1000" enable-background="new 0 0 1000 1000" xml:space="preserve">
<metadata> Svg Vector Icons : http://www.onlinewebfonts.com/icon </metadata>
<g><g transform="translate(0.000000,511.000000) scale(0.100000,-0.100000)"><path d="M4323.8,4976.2c-2054.4-315.4-3689.1-1829.5-4117-3820.7C75.2,538.4,64.2-221.4,179.4-808.4c395-2016,1963.9-3557.4,3990.8-3927.7c386.7-71.3,1286.4-71.3,1673.1,0C7683.8-4401.5,9173.1-3079.4,9708-1307.6c156.3,515.7,192,781.7,192,1415.3c0,633.6-35.7,899.6-192,1415.3C9181.4,3273,7735.9,4575.8,5922.9,4935.1C5530.7,5014.6,4707.8,5033.9,4323.8,4976.2z M5610.2,4274.1c866.7-117.9,1736.2-554,2372.5-1190.4c567.8-567.8,992.9-1352.2,1152-2136.7c101.5-501.9,101.5-1176.7,0-1681.4c-159.1-779-584.2-1566.1-1152-2133.9s-1355-992.9-2133.9-1152c-504.7-101.5-1179.4-101.5-1681.4,0c-1228.8,252.3-2314.9,1069.7-2888.2,2180.5c-537.6,1036.8-628.1,2186-260.6,3291.4C1432.9,2697,2417.6,3681.6,3662.8,4095.8C4310.1,4309.8,4921.8,4367.3,5610.2,4274.1z"/><path d="M2754.9,1769.9c-167.3-96-227.6-353.8-117.9-501.9c30.2-41.1,167.3-137.1,307.2-211.2c137.1-76.8,252.3-145.4,252.3-153.6c0-8.2-117.9-79.5-260.6-159.1c-290.7-161.8-351.1-230.4-351.1-397.7c0-145.4,41.1-227.7,153.6-293.5c170.1-104.2,246.9-82.3,872.2,263.3c320.9,178.3,595.2,348.3,617.1,384c68.6,104.2,76.8,257.8,16.5,367.5c-43.9,76.8-150.9,148.1-611.7,405.9C3034.7,1808.3,2903,1852.2,2754.9,1769.9z"/><path d="M6383.7,1495.6c-307.2-170.1-584.2-334.6-614.4-367.5c-41.1-38.4-63.1-104.2-71.3-208.5c-11-145.4-8.3-156.3,79.5-244.1c52.1-49.4,334.6-222.2,630.8-384c573.3-312.7,663.8-340.1,820.1-249.6c172.8,104.2,219.4,351.1,93.3,501.9c-38.4,46.6-175.5,142.6-301.7,211.2c-126.2,68.6-230.4,134.4-230.4,145.4c0,11,96,74.1,213.9,137.1c331.9,181,389.5,244.1,389.5,436.1c0,104.2-16.4,137.1-107,227.7C7107.8,1879.6,7044.7,1865.9,6383.7,1495.6z"/><path d="M4482.9-772.7c-587-85-1198.6-345.6-1681.3-715.9c-238.6-183.8-299-263.3-299-397.7c0-351.1,340.1-477.3,630.8-235.9c611.6,504.7,1415.3,754.3,2169.6,669.2c521.1-60.4,1006.6-241.4,1398.8-529.4c109.7-79.6,238.6-172.8,285.3-205.7c233.1-172.8,573.2,38.4,534.9,329.1c-19.2,139.9-145.4,271.6-469,491c-458,304.4-929.8,496.4-1440,581.5C5335.9-739.8,4751.7-731.6,4482.9-772.7z"/></g></g>
</svg>