<?xml version="1.0" encoding="utf-8"?>
<!-- Svg Vector Icons : http://www.onlinewebfonts.com/icon -->
<!DOCTYPE svg PUBLIC "-//W3C//DTD SVG 1.1//EN" "http://www.w3.org/Graphics/SVG/1.1/DTD/svg11.dtd">
<svg version="1.1" xmlns="http://www.w3.org/2000/svg" xmlns:xlink="http://www.w3.org/1999/xlink" x="0px" y="0px" viewBox="0 0 1000 1000" enable-background="new 0 0 1000 1000" xml:space="preserve">
<metadata> Svg Vector Icons : http://www.onlinewebfonts.com/icon </metadata>
<g><g transform="translate(0.000000,511.000000) scale(0.100000,-0.100000)"><path d="M4323.8,4976.2c-2054.4-315.4-3689.1-1829.5-4117-3820.7C75.2,538.4,64.2-221.4,179.4-808.4c395-2016,1963.9-3557.4,3990.8-3927.7c386.7-71.3,1286.4-71.3,1673.1,0C7683.8-4401.5,9173.1-3079.4,9708-1307.6c156.3,515.7,192,781.7,192,1415.3c0,633.6-35.7,899.6-192,1415.3C9181.4,3273,7735.9,4575.8,5922.9,4935.1C5530.7,5014.6,4707.8,5033.9,4323.8,4976.2z M5610.2,4274.1c866.7-117.9,1736.2-554,2372.5-1190.4c567.8-567.8,992.9-1352.2,1152-2136.7c101.5-501.9,101.5-1176.7,0-1681.4c-159.1-779-584.2-1566.1-1152-2133.9s-1355-992.9-2133.9-1152c-504.7-101.5-1179.4-101.5-1681.4,0c-1228.8,252.3-2314.9,1069.7-2888.2,2180.5c-537.6,1036.8-628.1,2186-260.6,3291.4C1432.9,2697,2417.6,3681.6,3662.8,4095.8C4310.1,4309.8,4921.8,4367.3,5610.2,4274.1z"/><path d="M2576.6,1811c-46.6-27.4-107-96-131.7-153.6c-79.5-167.3-43.9-266.1,181-499.2L2820.8,958l-192-203c-211.2-219.4-252.3-315.4-200.2-463.5c57.6-181,244.1-285.3,416.9-235.9c54.9,13.7,161.8,96,268.8,203c96,98.7,189.3,178.3,205.7,178.3s109.7-79.5,205.7-178.3c107-107,213.9-189.3,268.8-203c238.6-68.6,477.3,153.6,430.6,400.5c-13.7,74-68.6,153.6-211.2,301.7L3819.2,958l194.7,200.2c216.7,227.7,252.3,307.2,194.7,469c-68.6,197.5-301.7,293.5-485.5,197.5c-41.1-22-148.1-115.2-238.6-205.7l-161.8-167.3l-181,175.5c-98.7,96-205.7,189.3-238.6,205.7C2812.5,1879.6,2672.6,1868.6,2576.6,1811z"/><path d="M5944.8,1808.3c-112.5-68.6-181-222.2-159.1-353.8c11-71.3,65.8-145.4,214-296.2l197.5-197.5l-194.7-203c-145.4-148.1-200.2-227.7-213.9-301.7c-46.6-246.9,192-469,430.6-400.5c54.9,13.7,161.8,96,268.8,203c96,98.7,189.3,178.3,205.7,178.3s109.7-79.5,205.7-178.3c107-107,213.9-189.3,268.8-203c172.8-49.4,359.3,54.9,416.9,235.9c52.1,148.1,11,244.1-200.2,466.3l-192,203l181,183.8c98.8,101.5,194.7,219.4,211.2,263.3c90.5,246.9-161.8,510.2-430.6,441.6c-38.4-8.2-161.8-101.5-268.8-205.7l-194.7-192L6526.3,1619c-87.8,90.5-194.8,183.8-235.9,205.7C6186.2,1879.6,6051.8,1871.4,5944.8,1808.3z"/><path d="M4702.3-632.8c-938-117.9-1728-683-2128.4-1525c-120.7-255.1-115.2-392.2,19.2-510.2l82.3-76.8h2331.4h2331.4l85,76.8c137.1,120.7,137.1,266.1,2.8,540.3C7063.9-1389.9,6364.5-844,5555.4-674C5314-624.6,4924.5-605.4,4702.3-632.8z M5412.7-1362.4c117.9-21.9,318.2-93.2,458.1-161.8c244.1-117.9,587-373,644.6-480c30.2-54.9,24.7-54.9-1508.6-54.9c-1533.2,0-1538.7,0-1508.5,54.9c57.6,107,400.5,362.1,644.6,480C4548.7-1326.8,4973.9-1271.9,5412.7-1362.4z"/></g></g>
</svg>