<?xml version="1.0" encoding="utf-8"?>
<!-- Svg Vector Icons : http://www.onlinewebfonts.com/icon -->
<!DOCTYPE svg PUBLIC "-//W3C//DTD SVG 1.1//EN" "http://www.w3.org/Graphics/SVG/1.1/DTD/svg11.dtd">
<svg version="1.1" xmlns="http://www.w3.org/2000/svg" xmlns:xlink="http://www.w3.org/1999/xlink" x="0px" y="0px" viewBox="0 0 1000 1000" enable-background="new 0 0 1000 1000" xml:space="preserve">
<metadata> Svg Vector Icons : http://www.onlinewebfonts.com/icon </metadata>
<g><g transform="translate(0.000000,511.000000) scale(0.100000,-0.100000)"><path d="M4032.6,4640.8C2119.9,4347.1,597.9,2937.4,199.5,1083.4C76.9,508.8,66.7-198.6,173.9-745.1C541.7-2622,2002.4-4059.8,3889.6-4402c362.6-66.4,1200.2-66.4,1557.8,0c541.4,99.6,1128.8,321.8,1603.7,607.8l171.1,104.7l135.4-127.7c252.8-237.5,487.8-329.4,786.5-309c288.6,20.4,464.8,122.6,822.3,475c766.1,755.9,952.5,1080.2,932.1,1621.6c-7.7,237.5-17.9,278.4-104.7,462.2c-109.8,229.8-362.6,503.1-549,589.9c-99.6,46-109.8,58.7-97,127.7c76.6,472.4,97,717.6,84.3,1098.1c-15.3,467.3-63.8,773.8-186.4,1177.3c-490.3,1629.3-1836.2,2842.3-3524.2,3176.8C5156.3,4676.5,4390.1,4694.4,4032.6,4640.8z M5230.3,3987c807-109.8,1616.5-515.8,2209-1108.3c528.6-528.6,924.5-1259,1072.6-1989.4c91.9-459.7,94.5-1087.9,5.1-1534.8c-25.5-127.7-40.9-155.8-94.5-171.1c-367.8-107.3-342.2-104.7-475-58.7c-168.6,58.7-490.3,79.2-671.7,38.3c-206.8-43.4-449.4-171.1-610.3-319.2c-572.1-521-566.9-1315.2,12.8-1956.2l84.3-94.5l-58.7-38.3c-30.6-20.4-166-92-296.3-155.8c-916.8-462.2-1991.9-536.3-2987.8-204.3c-950,314.1-1762.1,1011.3-2221.7,1900C697.5-739.9,613.2,330.1,955.4,1359.2C1341,2518.6,2257.8,3435.4,3417.2,3821C4019.9,4020.2,4589.3,4073.8,5230.3,3987z M7809.6-1529.1c48.5-23,130.2-84.3,178.8-135.3l86.8-91.9l104.7,99.6c148.1,143,250.3,189,434.1,189c316.7,0,600.1-242.6,641-549.1c23-168.5-43.4-367.7-186.4-559.3c-158.3-209.4-738-807-827.4-855.5c-92-46-234.9-46-326.9,0c-102.1,53.6-745.7,727.8-868.3,909.1c-125.1,189-166,326.9-148.1,490.3C6949-1600.6,7429.1-1335,7809.6-1529.1z"/><path d="M5945.4,1397.5c-288.6-160.9-549.1-321.8-579.7-357.5c-43.4-51.1-58.7-99.6-58.7-196.6c0-109.8,10.2-137.9,84.3-209.4c43.4-43.4,306.4-204.3,582.2-355c533.7-291.1,618-316.7,763.6-232.4c160.9,97.1,204.3,326.9,86.8,467.3c-35.8,43.4-163.4,132.8-280.9,196.6c-117.5,63.8-214.5,125.1-214.5,135.3c0,10.2,89.4,69,199.2,127.7c309,168.5,362.6,227.3,362.6,406c0,97-15.3,127.7-99.6,212C6624.6,1757.6,6568.5,1744.8,5945.4,1397.5z"/><path d="M2809.4,1471.6c-482.7-240-477.6-909.1,7.7-1167c143-76.6,418.8-76.6,564.4,0C3603.6,422,3726.2,611,3744,863.8C3777.3,1354.1,3253.7,1693.8,2809.4,1471.6z"/><path d="M4397.8-431c-150.7-35.7-367.7-173.6-439.2-278.3c-48.5-71.5-58.7-112.4-48.5-212c12.8-135.4,66.4-212,189-263.1c132.8-56.2,232.4-43.4,332,40.9c155.8,137.9,349.9,74,349.9-114.9c0-112.4-76.6-191.5-186.4-191.5c-160.9,0-334.5-173.7-334.5-332c0-158.3,173.6-332,334.5-332c109.8,0,186.4-79.2,186.4-191.5c0-189-194.1-252.8-349.9-114.9c-99.6,84.3-199.2,97-332,40.8c-122.6-51.1-176.2-127.7-189-263c-10.2-99.6,0-140.5,48.5-212c127.7-186.4,480.1-329.4,732.9-293.7c178.8,23,418.8,150.7,536.3,283.5c222.2,252.8,270.7,630.8,122.6,937.2l-71.5,145.6l71.5,148.1c148.1,303.9,99.6,681.9-122.6,934.7C5036.2-482,4676.2-364.5,4397.8-431z"/></g></g>
</svg>