<?xml version="1.0" encoding="utf-8"?>
<!-- Svg Vector Icons : http://www.onlinewebfonts.com/icon -->
<!DOCTYPE svg PUBLIC "-//W3C//DTD SVG 1.1//EN" "http://www.w3.org/Graphics/SVG/1.1/DTD/svg11.dtd">
<svg version="1.1" xmlns="http://www.w3.org/2000/svg" xmlns:xlink="http://www.w3.org/1999/xlink" x="0px" y="0px" viewBox="0 0 1000 1000" enable-background="new 0 0 1000 1000" xml:space="preserve">
<metadata> Svg Vector Icons : http://www.onlinewebfonts.com/icon </metadata>
<g><g transform="translate(0.000000,511.000000) scale(0.100000,-0.100000)"><path d="M4323.8,4976.2c-2054.4-315.4-3689.1-1829.5-4117-3820.7C75.2,538.4,64.2-221.4,179.4-808.4c395-2016,1963.9-3557.4,3990.8-3927.7c386.7-71.3,1286.4-71.3,1673.1,0C7683.8-4401.5,9173.1-3079.4,9708-1307.6c156.3,515.7,192,781.7,192,1415.3c0,633.6-35.7,899.6-192,1415.3C9181.4,3273,7735.9,4575.8,5922.9,4935.1C5530.7,5014.6,4707.8,5033.9,4323.8,4976.2z M5610.2,4274.1c866.7-117.9,1736.2-554,2372.5-1190.4c567.8-567.8,992.9-1352.2,1152-2136.7c101.5-501.9,101.5-1176.7,0-1681.4c-159.1-779-584.2-1566.1-1152-2133.9s-1355-992.9-2133.9-1152c-504.7-101.5-1179.4-101.5-1681.4,0c-1228.8,252.3-2314.9,1069.7-2888.2,2180.5c-537.6,1036.8-628.1,2186-260.6,3291.4C1432.9,2697,2417.6,3681.6,3662.8,4095.8C4310.1,4309.8,4921.8,4367.3,5610.2,4274.1z"/><path d="M2738.5,2494c-216.7-131.7-224.9-458.1-13.7-581.5c41.1-24.7,362.1-156.3,713.1-296.2c348.3-137.1,636.3-255.1,636.3-260.6c0-5.5-274.3-117.9-608.9-249.6c-337.4-131.7-655.5-260.6-710.4-288c-109.7-54.9-189.3-189.3-189.3-318.2c0-164.6,175.5-337.4,345.6-337.4c38.4,0,537.6,183.8,1108.1,408.7L5058.9,980l1036.8-408.7c570.5-224.9,1075.2-408.7,1121.8-408.7c189.3,0,375.8,235.9,331.9,416.9c-43.9,172.8-128.9,224.9-765.3,474.5c-337.4,131.7-647.3,255.1-691.2,271.5c-74.1,30.2-41.1,46.6,611.7,301.7c737.8,290.7,806.4,331.9,839.3,521.1c38.4,194.7-134.4,400.5-331.9,400.5c-49.4,0-551.3-183.8-1121.8-408.7l-1031.3-405.9l-1034,405.9c-567.8,224.9-1069.7,408.7-1116.3,408.7C2864.6,2548.9,2787.8,2524.2,2738.5,2494z"/><path d="M2264-610.9c-159.1-82.3-257.8-257.8-233.1-416.9c21.9-145.4,211.2-501.9,400.5-757C2914-2434.9,3580.5-2860,4389.7-3035.6c296.2-63.1,932.6-63.1,1234.3,2.8c677.5,142.6,1223.3,449.8,1700.5,949c329.1,342.9,622.6,820.1,661,1069.7c22,145.4-85,326.4-235.9,403.2l-120.7,60.3H5006.8H2384.6L2264-610.9z M7006.3-1387.1c-222.2-307.2-647.3-641.8-1012.1-795.4c-364.8-156.3-548.6-189.3-987.4-189.3c-441.6-2.7-674.7,43.9-1028.6,203c-356.6,159.1-773.5,496.4-976.4,789.9l-82.3,115.2h2087.3h2087.3L7006.3-1387.1z"/></g></g>
</svg>