<?xml version="1.0" encoding="utf-8"?>
<!-- Svg Vector Icons : http://www.onlinewebfonts.com/icon -->
<!DOCTYPE svg PUBLIC "-//W3C//DTD SVG 1.1//EN" "http://www.w3.org/Graphics/SVG/1.1/DTD/svg11.dtd">
<svg version="1.1" xmlns="http://www.w3.org/2000/svg" xmlns:xlink="http://www.w3.org/1999/xlink" x="0px" y="0px" viewBox="0 0 1000 1000" enable-background="new 0 0 1000 1000" xml:space="preserve">
<metadata> Svg Vector Icons : http://www.onlinewebfonts.com/icon </metadata>
<g><g transform="translate(0.000000,511.000000) scale(0.100000,-0.100000)"><path d="M4336.9,4986.4C2228.1,4682,585.4,3132.5,163.1,1042.9C108.2,774.1,100,650.7,100,102.2c0-559.4,8.2-666.4,65.8-932.4C500.4-2390.5,1498.6-3674,2886.2-4323.9c1373.9-644.5,2950.8-625.2,4294.5,49.4C8782.3-3471,9807.9-1883.2,9895.7-76c46.6,1028.4-285.2,2161-888.5,3016.6c-241.3,340-850.1,948.9-1187.4,1184.7c-592.3,416.8-1264.2,696.6-2004.6,833.7C5494.2,5019.3,4666,5033,4336.9,4986.4z M5565.5,4281.6c606.1-71.3,1223.1-309.9,1790.7-685.6c318.1-213.9,858.4-743.2,1080.5-1064c312.6-447,543-979,674.6-1552.2c71.3-315.4,101.5-1047.6,54.9-1393.1C8982.5-1795.5,8151.5-2980.1,6912-3624.6c-1560.4-814.5-3499.2-548.5-4788.1,655.4C1010.5-1932.6,544.3-385.9,895.3,1095c246.8,1042.1,880.3,1938.8,1782.5,2536.7C3519.7,4191.1,4498.7,4410.5,5565.5,4281.6z"/><path d="M2971.2,1580.4c-518.3-257.8-512.8-976.3,8.2-1253.2c153.6-82.3,449.7-82.3,606.1,0c238.6,126.1,370.2,329.1,389.4,600.6C4010.6,1454.2,3448.4,1819,2971.2,1580.4z"/><path d="M6352.5,1585.9c-257.8-117.9-411.4-375.7-392.1-658.2c19.2-274.2,145.3-471.7,389.4-600.6c156.3-82.3,452.5-82.3,606,0c315.4,167.3,466.2,526.5,359.2,847.4C7183.5,1574.9,6736.5,1764.1,6352.5,1585.9z"/><path d="M2225.3-602.6c-159.1-82.3-257.8-257.8-233.1-416.8c21.9-145.4,211.2-501.9,403.1-762.4c477.2-641.7,1146.3-1069.5,1955.3-1245c298.9-63.1,935.1-63.1,1234.1,0c811.7,175.5,1469.9,597.8,1963.5,1258.7c181,241.3,375.7,614.3,397.6,759.6c22,148.1-82.3,326.3-235.8,405.9l-120.7,60.3H4967.7H2346L2225.3-602.6z M6966.8-1378.6c-222.1-307.1-647.2-641.7-1011.9-795.3c-364.7-156.3-548.5-189.2-987.2-189.2c-441.5-2.8-674.6,43.9-1028.4,202.9c-356.5,159.1-773.3,496.4-976.3,789.8l-82.3,115.2h2086.9h2086.9L6966.8-1378.6z"/></g></g>
</svg>