<?xml version="1.0" encoding="utf-8"?>
<!-- Svg Vector Icons : http://www.onlinewebfonts.com/icon -->
<!DOCTYPE svg PUBLIC "-//W3C//DTD SVG 1.1//EN" "http://www.w3.org/Graphics/SVG/1.1/DTD/svg11.dtd">
<svg version="1.1" xmlns="http://www.w3.org/2000/svg" xmlns:xlink="http://www.w3.org/1999/xlink" x="0px" y="0px" viewBox="0 0 1000 1000" enable-background="new 0 0 1000 1000" xml:space="preserve">
<metadata> Svg Vector Icons : http://www.onlinewebfonts.com/icon </metadata>
<g><g transform="translate(0.000000,511.000000) scale(0.100000,-0.100000)"><path d="M4323.8,4976.2c-2054.4-315.4-3689.1-1829.5-4117-3820.7C75.2,538.4,64.2-221.4,179.4-808.4c395-2016,1963.9-3557.4,3990.8-3927.7c386.7-71.3,1286.4-71.3,1673.1,0C7683.8-4401.5,9173.1-3079.4,9708-1307.6c156.3,515.7,192,781.7,192,1415.3c0,633.6-35.7,899.6-192,1415.3C9181.4,3273,7735.9,4575.8,5922.9,4935.1C5530.7,5014.6,4707.8,5033.9,4323.8,4976.2z M5610.2,4274.1c866.7-117.9,1736.2-554,2372.5-1190.4c567.8-567.8,992.9-1355,1152-2136.7c101.5-501.9,101.5-1176.7,0-1681.4c-249.6-1226-1069.7-2309.5-2183.3-2885.5c-707.7-367.5-1470.2-526.6-2249.1-469c-600.7,46.6-1105.4,192-1642.9,469c-762.5,395-1385.1,1017.6-1780.1,1780.1c-537.6,1036.8-628.1,2186-260.6,3291.4C1432.9,2697,2417.6,3681.6,3662.8,4095.8C4310.1,4309.8,4921.8,4367.3,5610.2,4274.1z"/><path d="M2576.6,1811c-46.6-27.4-107-96-131.7-153.6c-79.5-167.3-43.9-266.1,181-499.2L2820.8,958l-192-203c-211.2-219.4-252.3-315.4-200.2-463.5c57.6-181,244.1-285.3,416.9-235.9c54.9,13.7,161.8,96,268.8,203c96,98.7,189.3,178.3,205.7,178.3s109.7-79.5,205.7-178.3c107-107,213.9-189.3,268.8-203c238.6-68.6,477.3,153.6,430.6,400.5c-13.7,74-68.6,153.6-211.2,301.7L3819.2,958l194.7,200.2c216.7,227.7,252.3,307.2,194.7,469c-68.6,197.5-301.7,293.5-485.5,197.5c-41.1-22-148.1-115.2-238.6-205.7l-161.8-167.3l-181,175.5c-98.7,96-205.7,189.3-238.6,205.7C2812.5,1879.6,2672.6,1868.6,2576.6,1811z"/><path d="M5944.8,1808.3c-112.5-68.6-181-222.2-159.1-353.8c11-71.3,65.8-145.4,214-296.2l197.5-197.5l-194.7-203c-145.4-148.1-200.2-227.7-213.9-301.7c-46.6-246.9,192-469,430.6-400.5c54.9,13.7,161.8,96,268.8,203c96,98.7,189.3,178.3,205.7,178.3s109.7-79.5,205.7-178.3c107-107,213.9-189.3,268.8-203c172.8-49.4,359.3,54.9,416.9,235.9c52.1,148.1,11,244.1-200.2,466.3l-192,203l181,183.8c98.8,101.5,194.7,219.4,211.2,263.3c90.5,246.9-161.8,510.2-430.6,441.6c-38.4-8.2-161.8-101.5-268.8-205.7l-194.7-192L6526.3,1619C6287.7,1865.9,6125.9,1918,5944.8,1808.3z"/><path d="M1962.3-665.7c-153.6-79.6-222.2-175.6-238.6-331.9c-13.7-104.2,2.7-159.1,107-381.3c186.5-392.2,362-636.3,693.9-971c523.9-529.4,1077.9-831.1,1796.6-987.4c326.4-71.3,1045-71.3,1371.4,0c710.4,153.6,1269.9,458.1,1785.6,973.7c326.4,326.4,521.1,600.7,704.9,984.7c104.2,222.2,120.7,277,107,381.3c-16.5,156.3-85,252.3-238.6,331.9l-120.7,60.3H5006.8H2082.9L1962.3-665.7z M7404-1351.5c-85-150.8-285.3-397.7-452.6-559.5c-348.3-334.6-704.9-540.3-1190.4-688.4c-230.4-68.6-277-74.1-754.3-74.1c-471.8,0-523.9,5.5-754.3,76.8c-290.7,87.8-584.2,222.2-803.6,364.8c-285.3,189.2-683,606.2-839.3,880.4c-16.5,24.7,471.8,32.9,2397.2,32.9C6932.3-1318.5,7420.5-1326.8,7404-1351.5z"/></g></g>
</svg>