<?xml version="1.0" encoding="utf-8"?>
<!-- Svg Vector Icons : http://www.onlinewebfonts.com/icon -->
<!DOCTYPE svg PUBLIC "-//W3C//DTD SVG 1.1//EN" "http://www.w3.org/Graphics/SVG/1.1/DTD/svg11.dtd">
<svg version="1.1" xmlns="http://www.w3.org/2000/svg" xmlns:xlink="http://www.w3.org/1999/xlink" x="0px" y="0px" viewBox="0 0 1000 1000" enable-background="new 0 0 1000 1000" xml:space="preserve">
<metadata> Svg Vector Icons : http://www.onlinewebfonts.com/icon </metadata>
<g><g transform="translate(0.000000,511.000000) scale(0.100000,-0.100000)"><path d="M4323.8,4976.2c-2054.4-315.4-3689.1-1829.5-4117-3820.7C75.2,538.4,64.2-221.4,179.4-808.4c395-2016,1963.9-3557.4,3990.8-3927.7c386.7-71.3,1286.4-71.3,1673.1,0C7683.8-4401.5,9173.1-3079.4,9708-1307.6c156.3,515.7,192,781.7,192,1415.3c0,633.6-35.7,899.6-192,1415.3C9181.4,3273,7735.9,4575.8,5922.9,4935.1C5530.7,5014.6,4707.8,5033.9,4323.8,4976.2z M5610.2,4274.1c866.7-117.9,1736.2-554,2372.5-1190.4c567.8-567.8,992.9-1352.2,1152-2136.7c101.5-501.9,101.5-1176.7,0-1681.4c-159.1-779-584.2-1566.1-1152-2133.9s-1355-992.9-2133.9-1152c-504.7-101.5-1179.4-101.5-1681.4,0c-1228.8,252.3-2314.9,1069.7-2888.2,2180.5c-537.6,1036.8-628.1,2186-260.6,3291.4C1432.9,2697,2417.6,3681.6,3662.8,4095.8C4310.1,4309.8,4921.8,4367.3,5610.2,4274.1z"/><path d="M2620.5,1989.3c-164.6-82.3-277-246.9-296.2-425.1c-21.9-227.7,76.8-386.7,512.9-831.1C3180.1,382,3218.5,354.6,3309,354.6c128.9,0,312.7,148.1,639.1,515.6c370.3,416.9,444.3,622.6,312.7,883.2c-170,334.6-614.4,400.5-869.5,126.2l-65.8-71.3l-107,98.7c-60.3,52.1-137.1,107-175.5,120.7C2927.7,2074.4,2752.2,2057.9,2620.5,1989.3z"/><path d="M6049.1,2025c-208.5-82.3-353.8-293.5-356.6-504.7c0-172.8,109.7-362.1,392.2-672c331.9-367.5,488.2-493.7,619.9-493.7c90.5,0,128.9,30.2,471.7,378.5c433.4,441.6,534.9,603.4,512.9,828.3c-19.2,192-126.2,342.9-304.4,427.9c-235.9,109.7-403.2,85-589.7-82.3l-107-98.7l-65.8,71.3C6479.7,2033.2,6230.1,2096.3,6049.1,2025z"/><path d="M1962.3-665.7c-153.6-79.6-222.2-175.6-238.6-329.1c-11-104.2,2.7-161.8,98.7-367.5c200.2-422.4,362.1-655.5,710.4-1006.6c482.7-488.2,1091.7-817.4,1788.3-968.2c326.4-71.3,1045-71.3,1371.4,0c710.4,153.6,1269.9,458.1,1785.6,973.7c326.4,326.4,521.1,600.7,704.9,984.7c104.2,222.2,120.7,277,107,381.3c-16.5,156.3-85,252.3-238.6,331.9l-120.7,60.3H5006.8H2082.9L1962.3-665.7z M7404-1351.5c-85-150.8-285.3-397.7-452.6-559.5c-348.3-334.6-704.9-540.3-1190.4-688.4c-230.4-68.6-277-74.1-754.3-74.1c-471.8,0-523.9,5.5-754.3,76.8c-290.7,87.8-584.2,222.2-803.6,364.8c-285.3,189.2-683,606.2-839.3,880.4c-16.5,24.7,471.8,32.9,2397.2,32.9C6932.3-1318.5,7420.5-1326.8,7404-1351.5z"/></g></g>
</svg>