<?xml version="1.0" encoding="utf-8"?>
<!-- Svg Vector Icons : http://www.onlinewebfonts.com/icon -->
<!DOCTYPE svg PUBLIC "-//W3C//DTD SVG 1.1//EN" "http://www.w3.org/Graphics/SVG/1.1/DTD/svg11.dtd">
<svg version="1.1" xmlns="http://www.w3.org/2000/svg" xmlns:xlink="http://www.w3.org/1999/xlink" x="0px" y="0px" viewBox="0 0 1000 1000" enable-background="new 0 0 1000 1000" xml:space="preserve">
<metadata> Svg Vector Icons : http://www.onlinewebfonts.com/icon </metadata>
<g><g transform="translate(0.000000,511.000000) scale(0.100000,-0.100000)"><path d="M4318.7,4976.1C2266.8,4661,634.1,3148.8,206.7,1160C75.2,543.6,64.3-215.3,179.3-801.5C532.7-2606.8,1839.5-4056,3587.2-4582c783.5-238.3,1651.9-271.2,2460.1-98.6c736.9,158.9,1501.2,531.5,2071,1013.6l202.7,167.1l249.3,8.2c219.2,2.8,276.7,16.4,435.6,90.4c246.6,115,364.3,208.2,506.8,402.7c243.8,328.7,295.9,772.5,131.5,1131.4l-76.7,172.6l84.9,252c191.8,580.8,265.7,1101.2,243.8,1717.6c-16.5,493.1-71.2,824.6-200,1251.9c-526,1747.8-1969.7,3049-3780.5,3407.9C5524.1,5014.4,4702.2,5033.6,4318.7,4976.1z M5603.5,4274.7c460.2-63,873.9-197.2,1345.1-438.3c756.1-391.7,1380.7-1016.4,1775.2-1777.9c498.6-964.3,610.9-2021.7,328.7-3071l-57.5-210.9l-123.3,38.3c-178.1,54.8-465.7,49.3-641-13.7c-279.4-95.9-687.6-323.3-1043.8-580.8c-101.4-73.9-205.5-134.2-230.1-134.2c-24.7,0-145.2,95.9-268.5,213.7c-312.3,301.3-421.9,347.9-783.5,347.9c-356.1,0-432.8-35.6-756.1-345.2c-208.2-200-235.6-216.4-339.7-216.4c-106.8,0-131.5,16.4-326,208.2c-282.2,282.2-413.7,345.2-734.2,361.6c-235.6,11-263,5.5-427.3-71.2c-126-57.5-235.6-142.5-378.1-284.9c-172.6-172.6-221.9-208.2-323.3-224.6c-169.9-27.4-263-82.2-315-191.8c-57.5-123.3-54.8-230.1,11-337c79.4-131.5,197.3-180.8,386.3-164.4c238.3,21.9,424.6,120.5,690.3,372.6c315,295.9,331.5,295.9,635.6,2.8c312.3-301.3,465.7-369.8,794.5-369.8c216.4,2.7,265.7,10.9,397.2,79.4c82.2,41.1,249.3,172.6,372.6,293.1c238.3,230.1,295.9,254.8,446.5,178.1c41.1-21.9,120.5-95.9,175.3-164.4c139.7-167.1,397.2-334.2,578-372.6c84.9-16.5,169.8-54.8,197.2-87.7c30.1-30.1,186.3-147.9,347.9-260.3c230.1-161.6,287.6-213.7,265.7-241.1c-16.4-19.2-131.5-104.1-254.8-186.3c-1101.3-731.4-2435.4-912.2-3687.4-495.9c-1019.1,337-1890.2,1084.8-2383.3,2038.2C740.9-796,650.5,351.8,1017.6,1455.8C1431.3,2699.6,2414.7,3683,3658.5,4096.7C4305,4310.4,4915.9,4367.9,5603.5,4274.7z M8784-1900c167.1-87.7,293.1-334.2,254.8-498.6c-52.1-216.4-263-391.7-474-391.7c-131.5,0-342.4,98.6-684.9,320.5l-232.9,150.7l68.5,49.3c134.2,104.1,487.7,306.8,643.8,372.6C8529.3-1826.1,8641.6-1828.8,8784-1900z"/><path d="M3006.5,1576.4c-517.8-257.5-512.3-975.3,8.2-1251.9c153.4-82.2,449.3-82.2,605.4,0c238.3,126,369.8,328.7,389,599.9C4044.7,1450.3,3483.1,1814.7,3006.5,1576.4z"/><path d="M6384.3,1581.8c-257.5-117.8-410.9-375.3-391.7-657.5c19.2-273.9,145.2-471.2,389-599.9c156.2-82.2,452-82.2,605.4,0c315,167.1,465.7,526,358.9,846.5C7214.3,1570.9,6767.8,1759.9,6384.3,1581.8z"/></g></g>
</svg>