<?xml version="1.0" encoding="utf-8"?>
<!-- Svg Vector Icons : http://www.onlinewebfonts.com/icon -->
<!DOCTYPE svg PUBLIC "-//W3C//DTD SVG 1.1//EN" "http://www.w3.org/Graphics/SVG/1.1/DTD/svg11.dtd">
<svg version="1.1" xmlns="http://www.w3.org/2000/svg" xmlns:xlink="http://www.w3.org/1999/xlink" x="0px" y="0px" viewBox="0 0 1000 1000" enable-background="new 0 0 1000 1000" xml:space="preserve">
<metadata> Svg Vector Icons : http://www.onlinewebfonts.com/icon </metadata>
<g><g transform="translate(0.000000,511.000000) scale(0.100000,-0.100000)"><path d="M4323.8,4976.2c-2054.4-315.4-3689.1-1829.5-4117-3820.7C75.2,538.4,64.2-221.4,179.4-808.4c395-2016,1963.9-3557.4,3990.8-3927.7c386.7-71.3,1286.4-71.3,1673.1,0C7683.8-4401.5,9173.1-3079.4,9708-1307.6c156.3,515.7,192,781.7,192,1415.3c0,633.6-35.7,899.6-192,1415.3C9181.4,3273,7735.9,4575.8,5922.9,4935.1C5530.7,5014.6,4707.8,5033.9,4323.8,4976.2z M5610.2,4274.1c866.7-117.9,1736.2-554,2372.5-1190.4c567.8-567.8,992.9-1352.2,1152-2136.7c101.5-501.9,101.5-1176.7,0-1681.4c-159.1-779-584.2-1566.1-1152-2133.9s-1355-992.9-2133.9-1152c-504.7-101.5-1179.4-101.5-1681.4,0c-1228.8,252.3-2314.9,1069.7-2888.2,2180.5c-537.6,1036.8-628.1,2186-260.6,3291.4C1432.9,2697,2417.6,3681.6,3662.8,4095.8C4310.1,4309.8,4921.8,4367.3,5610.2,4274.1z"/><path d="M2853.7,2326.7c-74.1-16.5-224.9-71.3-334.6-123.4C1608.4,1767.1,1400,560.3,2113.1-152.8c469-469,1157.5-567.8,1752.7-252.3c342.9,181,647.3,592.5,726.9,973.7c183.8,896.9-463.5,1736.2-1368.7,1774.6C3095,2348.6,2930.5,2343.1,2853.7,2326.7z M3421.4,1599.8c403.2-137.1,617.1-647.3,433.4-1031.3c-194.7-411.4-677.5-576-1069.7-362c-485.5,263.3-540.3,929.8-107,1278.2C2872.9,1641,3169.1,1687.6,3421.4,1599.8z"/><path d="M3015.5,1204.9c-30.2-11-90.5-63.1-131.7-112.5c-68.6-79.5-76.8-107-65.8-235.9c13.7-170,90.5-268.8,238.6-309.9c227.7-63.1,441.6,98.7,441.6,334.6C3495.5,1122.6,3240.4,1295.4,3015.5,1204.9z"/><path d="M6625.1,2337.6c-438.8-74-853-370.3-1064.2-768C5045.2,601.4,5750.1-583.5,6844.5-589c403.2,0,770.7,150.9,1056,436.1c455.3,455.3,556.8,1127.3,257.8,1719.8c-109.7,216.7-395,501.9-619.9,619.9C7277.8,2323.9,6907.6,2384.3,6625.1,2337.6z M7247.7,1545c515.7-318.2,504.7-1053.2-19.2-1338.5c-392.2-214-875-52.1-1067,356.6c-139.9,293.5-54.9,685.7,194.8,899.6c161.8,139.9,298.9,181,548.6,170.1C7083.1,1627.3,7138,1613.5,7247.7,1545z"/><path d="M6679.9,1171.9c-159.1-109.7-211.2-293.5-126.2-458c82.3-156.3,318.2-227.7,477.2-142.6c96,52.1,170.1,192,170.1,326.4C7201.1,1158.2,6896.6,1320.1,6679.9,1171.9z"/><path d="M3572.3-1387.1c-142.6-54.9-331.9-197.5-504.7-381.3c-107-115.2-161.8-153.6-219.4-153.6c-123.4-2.8-301.7-96-348.3-189.3c-90.5-170.1-41.1-353.8,120.7-463.5c82.3-57.6,120.7-63.1,263.3-52.1c241.4,19.2,447.1,120.7,650,326.4c342.9,348.3,375.8,351.1,699.4,41.1c326.4-307.2,438.9-359.3,773.5-359.3c233.1,0,277,8.2,408.7,76.8c82.3,43.9,252.3,175.5,375.8,293.5c312.7,299,329.1,299,691.2-57.6c205.7-200.2,411.4-304.5,647.3-320.9c142.6-11,181-5.5,263.3,52.1c112.4,76.8,164.6,167.3,164.6,290.7c0,194.7-120.7,312.7-356.6,351.1c-96,16.5-148.1,52.1-318.2,222.2c-142.6,142.6-255.1,227.6-381.3,288c-170.1,76.8-197.5,82.3-433.4,71.3c-318.2-13.7-419.7-63.1-721.4-353.8C5138.4-1905.5,5111-1922,5006.8-1922c-104.2,0-131.6,16.4-340.1,216.7c-307.2,293.5-403.2,340.1-729.6,351.1C3756.1-1348.7,3643.6-1359.7,3572.3-1387.1z"/></g></g>
</svg>