<?xml version="1.0" encoding="utf-8"?>
<!-- Svg Vector Icons : http://www.onlinewebfonts.com/icon -->
<!DOCTYPE svg PUBLIC "-//W3C//DTD SVG 1.1//EN" "http://www.w3.org/Graphics/SVG/1.1/DTD/svg11.dtd">
<svg version="1.1" xmlns="http://www.w3.org/2000/svg" xmlns:xlink="http://www.w3.org/1999/xlink" x="0px" y="0px" viewBox="0 0 1000 1000" enable-background="new 0 0 1000 1000" xml:space="preserve">
<metadata> Svg Vector Icons : http://www.onlinewebfonts.com/icon </metadata>
<g><g transform="translate(0.000000,511.000000) scale(0.100000,-0.100000)"><path d="M4323.8,4976.2c-2054.4-315.4-3689.1-1829.5-4117-3820.7C75.2,538.4,64.2-221.4,179.4-808.4c395-2016,1963.9-3557.4,3990.8-3927.7c386.7-71.3,1286.4-71.3,1673.1,0C7683.8-4401.5,9173.1-3079.4,9708-1307.6c156.3,515.7,192,781.7,192,1415.3c0,633.6-35.7,899.6-192,1415.3C9181.4,3273,7735.9,4575.8,5922.9,4935.1C5530.7,5014.6,4707.8,5033.9,4323.8,4976.2z M5610.2,4274.1c866.7-117.9,1736.2-554,2372.5-1190.4c567.8-567.8,992.9-1352.2,1152-2136.7c101.5-501.9,101.5-1176.7,0-1681.4c-159.1-779-584.2-1566.1-1152-2133.9s-1355-992.9-2133.9-1152c-504.7-101.5-1179.4-101.5-1681.4,0c-1228.8,252.3-2314.9,1069.7-2888.2,2180.5c-537.6,1036.8-628.1,2186-260.6,3291.4C1432.9,2697,2417.6,3681.6,3662.8,4095.8C4310.1,4309.8,4921.8,4367.3,5610.2,4274.1z"/><path d="M2576.6,1811c-46.6-27.4-107-96-131.7-153.6c-79.5-167.3-43.9-266.1,181-499.2L2820.8,958l-192-203c-211.2-219.4-252.3-315.4-200.2-463.5c57.6-181,244.1-285.3,416.9-235.9c54.9,13.7,161.8,96,268.8,203c96,98.7,189.3,178.3,205.7,178.3s109.7-79.5,205.7-178.3c107-107,213.9-189.3,268.8-203c238.6-68.6,477.3,153.6,430.6,400.5c-13.7,74-68.6,153.6-211.2,301.7L3819.2,958l194.7,200.2c216.7,227.7,252.3,307.2,194.7,469c-68.6,197.5-301.7,293.5-485.5,197.5c-41.1-22-148.1-115.2-238.6-205.7l-161.8-167.3l-181,175.5c-98.7,96-205.7,189.3-238.6,205.7C2812.5,1879.6,2672.6,1868.6,2576.6,1811z"/><path d="M5944.8,1808.3c-112.5-68.6-181-222.2-159.1-353.8c11-71.3,65.8-145.4,214-296.2l197.5-197.5l-194.7-203c-145.4-148.1-200.2-227.7-213.9-301.7c-46.6-246.9,192-469,430.6-400.5c54.9,13.7,161.8,96,268.8,203c96,98.7,189.3,178.3,205.7,178.3s109.7-79.5,205.7-178.3c107-107,213.9-189.3,268.8-203c172.8-49.4,359.3,54.9,416.9,235.9c52.1,148.1,11,244.1-200.2,466.3l-192,203l181,183.8c98.8,101.5,194.7,219.4,211.2,263.3c90.5,246.9-161.8,510.2-430.6,441.6c-38.4-8.2-161.8-101.5-268.8-205.7l-194.7-192L6526.3,1619c-87.8,90.5-194.8,183.8-235.9,205.7C6186.2,1879.6,6051.8,1871.4,5944.8,1808.3z"/><path d="M3594.2-553.3c-444.3-74-795.4-342.9-998.4-765.2c-90.5-189.3-98.7-230.4-107-493.7c-8.2-241.4,0-318.2,49.4-463.5c159.1-474.5,521.1-792.7,1014.8-896.9c405.9-85,726.9,22,1036.8,340.1c227.7,233.1,296.2,279.8,416.9,279.8c117.9,0,181-43.9,416.9-279.8c309.9-318.2,633.6-422.4,1028.6-340.1c436.1,90.5,773.5,353.8,962.7,748.8c101.5,211.2,101.5,216.7,101.5,556.8c0,337.4-2.7,345.6-98.7,548.6c-208.5,433.4-554.1,693.9-1025.8,768c-375.8,60.4-683-54.9-987.4-370.3c-216.7-222.2-274.3-260.6-397.7-260.6c-123.4,0-181,38.4-400.5,263.3c-216.7,222.2-389.5,320.9-628.1,364.8C3799.9-520.4,3789-520.4,3594.2-553.3z M3975.5-1293.9c41.1-32.9,137.1-123.4,214-205.7c150.9-159.1,348.3-298.9,469-326.4c96-24.7,93.3-60.3-8.2-82.3c-107-24.7-373-219.4-501.9-370.3c-137.1-161.8-233.1-219.4-362.1-219.4c-123.4,0-323.6,82.3-419.6,172.8c-90.5,82.3-167.3,244.1-186.5,384c-35.6,255.1,115.2,526.6,353.8,639.1C3712.2-1219.8,3876.7-1217,3975.5-1293.9z M6490.6-1313c463.6-238.6,460.8-875,0-1108.1c-263.3-134.4-419.6-98.7-625.4,142.6c-128.9,150.9-395,345.6-501.9,370.3c-101.5,21.9-104.2,57.6-5.5,82.3c117.9,27.4,315.4,167.3,466.3,326.4c76.8,82.3,172.8,172.8,213.9,205.7C6142.3-1211.6,6309.6-1217,6490.6-1313z"/></g></g>
</svg>