<?xml version="1.0" encoding="utf-8"?>
<!-- Svg Vector Icons : http://www.onlinewebfonts.com/icon -->
<!DOCTYPE svg PUBLIC "-//W3C//DTD SVG 1.1//EN" "http://www.w3.org/Graphics/SVG/1.1/DTD/svg11.dtd">
<svg version="1.1" xmlns="http://www.w3.org/2000/svg" xmlns:xlink="http://www.w3.org/1999/xlink" x="0px" y="0px" viewBox="0 0 1000 1000" enable-background="new 0 0 1000 1000" xml:space="preserve">
<metadata> Svg Vector Icons : http://www.onlinewebfonts.com/icon </metadata>
<g><g transform="translate(0.000000,511.000000) scale(0.100000,-0.100000)"><path d="M4776.1,4731.9c-829.1-103.6-1704.9-453.4-2303.4-919.8l-62.2-49.2l-145.1,215.1c-235.8,344.6-269.5,383.5-380.9,448.3c-204.7,121.8-463.8,108.8-650.4-33.7C969.9,4198.1,319.5,3161.7,161.5,2687.6c-160.6-479.3,0-1049.4,406.8-1438l160.6-155.5L687.5,879C658.9,726.1,646,508.5,646,109.5c0-479.3,7.8-598.5,57-852.4c388.7-1927.7,1852.6-3373.5,3775.1-3723.3c365.3-67.4,1215.2-67.4,1580.5,0c1932.9,352.4,3440.9,1857.8,3782.9,3772.5c64.8,373.1,77.7,1010.5,28.5,1388.8c-238.4,1803.4-1500.2,3308.7-3220.7,3845.1c-463.8,142.5-725.5,181.4-1277.4,191.7C5094.8,4739.7,4825.3,4737.1,4776.1,4731.9z M5558.6,4073.8c891.3-75.1,1642.7-388.7,2326.7-971.6c800.6-684,1339.6-1808.5,1349.9-2821.6c2.6-274.7-28.5-367.9-184-575.2C8875.1-527.9,8445-805.1,7994.2-973.6l-137.3-51.8l-64.8,129.6c-93.3,186.6-290.2,370.5-497.5,469L7121-343.9H5268.4H3415.8l-173.6-82.9c-207.3-98.5-404.2-282.4-497.5-469l-64.8-129.6l-137.3,51.8C1848.2-714.5,1379.3-318,1306.7,65.4c-20.7,111.4,2.6,539,36.3,697c18.1,72.5,18.1,72.5,217.6,72.5c730.7,0,1347.3,544.1,1456.2,1285.2c38.9,259.1,5.2,461.2-142.5,805.8l-111.4,264.3l54.4,49.2c103.6,98.5,445.7,310.9,686.6,430.1c502.7,253.9,1026.1,383.5,1699.7,424.9C5232.1,4097.1,5392.8,4086.7,5558.6,4073.8z M1889.7,3340.5c108.8-168.4,256.5-430.1,329.1-583c127-259.1,134.7-287.6,134.7-471.6c-2.6-158-15.5-217.6-70-323.9C2027,1469.8,1444,1348,1047.6,1705.6c-184,165.8-274.7,360.1-274.7,593.3c0,158.1,15.6,209.9,106.2,401.6c119.2,251.3,310.9,564.8,536.3,878.4l158.1,217.6l59.6-75.1C1666.9,3679.9,1783.5,3508.9,1889.7,3340.5z M7087.3-1069.4c145.1-98.5,194.3-251.3,155.5-505.3c-90.7-634.8-476.8-1114.1-1067.5-1326.6c-158.1-54.4-212.5-59.6-844.7-67.4c-564.8-7.8-704.8,0-842.1,33.7c-640,165.8-1106.4,691.8-1194.5,1347.3c-36.3,269.5,7.8,417.2,155.5,518.2l95.9,64.8h1723.1h1723L7087.3-1069.4z M1713.5-1310.4c189.2-108.8,588.2-282.4,803.2-352.4c106.2-36.3,134.7-57,134.7-101.1c0-31.1,7.8-82.9,15.5-114c15.5-54.4,7.8-59.6-95.9-59.6c-106.2,0-536.3,57-704.8,93.3c-57,13-90.7,51.8-163.2,194.3c-103.6,207.3-196.9,437.9-178.8,437.9C1532.1-1212,1617.6-1256,1713.5-1310.4z M8973.6-1341.5c-28.5-70-90.7-209.9-139.9-308.3c-72.5-142.5-106.2-181.4-163.2-194.3c-168.4-36.3-598.5-93.3-704.8-93.3c-103.6,0-111.4,5.2-95.8,59.6c7.8,31.1,15.5,80.3,15.5,111.4c0,44,46.6,69.9,266.9,150.3c253.9,95.9,671.1,290.2,779.9,367.9C9020.2-1188.6,9028-1206.8,8973.6-1341.5z M3042.7-2707c308.3-448.2,875.8-803.2,1435.4-901.7c310.9-54.4,1269.6-54.4,1580.5,0c559.7,98.4,1127.1,453.4,1435.4,901.7l82.9,121.8h316.1l316.1-2.6l-181.4-168.4c-287.6-269.5-593.4-487.1-919.8-655.5c-1176.3-608.9-2503-608.9-3679.3,0c-326.5,168.4-632.2,386-919.8,655.5l-181.4,168.4l316.1,2.6h316.1L3042.7-2707z"/><path d="M3382.1,1493.1c-489.7-243.6-484.5-922.4,7.8-1184.1c145.1-77.7,424.9-77.7,572.6,0c225.4,119.2,349.8,310.9,367.9,567.5C4364.1,1373.9,3833,1718.5,3382.1,1493.1z"/><path d="M6576.9,1498.3c-243.6-111.4-388.7-355-370.5-621.8c18.1-259.1,137.3-445.7,367.9-567.5c147.7-77.7,427.5-77.7,572.6,0c298,158,440.5,497.5,339.4,800.6C7362,1487.9,6939.6,1666.7,6576.9,1498.3z"/></g></g>
</svg>