<?xml version="1.0" encoding="utf-8"?>
<!-- Svg Vector Icons : http://www.onlinewebfonts.com/icon -->
<!DOCTYPE svg PUBLIC "-//W3C//DTD SVG 1.1//EN" "http://www.w3.org/Graphics/SVG/1.1/DTD/svg11.dtd">
<svg version="1.1" xmlns="http://www.w3.org/2000/svg" xmlns:xlink="http://www.w3.org/1999/xlink" x="0px" y="0px" viewBox="0 0 1000 1000" enable-background="new 0 0 1000 1000" xml:space="preserve">
<metadata> Svg Vector Icons : http://www.onlinewebfonts.com/icon </metadata>
<g><g transform="translate(0.000000,511.000000) scale(0.100000,-0.100000)"><path d="M4323.8,4976.2c-2054.4-315.4-3689.1-1829.5-4117-3820.7C75.2,538.4,64.2-221.4,179.4-808.4c395-2016,1963.9-3557.4,3990.8-3927.7c386.7-71.3,1286.4-71.3,1673.1,0C7683.8-4401.5,9173.1-3079.4,9708-1307.6c156.3,515.7,192,781.7,192,1415.3c0,633.6-35.7,899.6-192,1415.3C9181.4,3273,7735.9,4575.8,5922.9,4935.1C5530.7,5014.6,4707.8,5033.9,4323.8,4976.2z M5610.2,4274.1c866.7-117.9,1736.2-554,2372.5-1190.4c567.8-567.8,992.9-1352.2,1152-2136.7c101.5-501.9,101.5-1176.7,0-1681.4c-159.1-779-584.2-1566.1-1152-2133.9s-1355-992.9-2133.9-1152c-504.7-101.5-1179.4-101.5-1681.4,0c-1228.8,252.3-2314.9,1069.7-2888.2,2180.5c-537.6,1036.8-628.1,2186-260.6,3291.4C1432.9,2697,2417.6,3681.6,3662.8,4095.8C4310.1,4309.8,4921.8,4367.3,5610.2,4274.1z"/><path d="M2513.6,1542.2c-227.7-120.7-266.1-320.9-112.5-608.9c107-200.2,271.5-353.8,491-460.8c137.1-65.8,186.5-76.8,427.9-76.8s293.5,8.2,430.6,74.1c85,38.4,211.2,123.4,279.8,186.5c137.1,126.2,318.2,452.6,318.2,573.2c0,172.8-186.5,359.3-356.6,359.3c-134.4,0-255.1-93.3-337.4-255.1c-82.3-170.1-183.8-244.1-334.6-244.1c-145.4,0-246.9,71.3-329.1,235.9C2872.9,1561.4,2697.3,1638.2,2513.6,1542.2z"/><path d="M5859.8,1539.5c-123.4-65.8-202.9-208.5-186.5-334.6c32.9-266.1,277-578.7,562.3-718.6c170.1-85,203-90.5,458.1-90.5c241.4,0,293.5,11,427.9,76.8c85,41.1,208.5,123.4,277,181c120.7,107,271.5,356.6,307.2,507.4c41.1,172.8-107,378.5-299,416.9c-150.9,27.4-285.3-57.6-384-246.9c-93.3-178.3-186.5-244.1-345.6-241.4c-145.4,2.7-235.9,71.3-320.9,246.9C6241.1,1569.7,6057.3,1643.7,5859.8,1539.5z"/><path d="M4595.4-174.8c-581.5-197.5-951.8-672-1047.8-1335.8c-85-573.3,186.5-1220.6,647.3-1547c290.7-208.4,416.9-246.9,814.6-249.6h345.6l241.4,120.7c732.3,362.1,1067,1242.5,781.7,2054.4C6109.4-366.8,5300.3,66.6,4595.4-174.8z M5305.7-879.7c134.4-68.6,320.9-274.3,392.2-433.4c46.6-101.5,60.3-183.8,60.3-403.2c2.8-249.6-5.5-290.8-76.8-433.4c-150.8-310-378.5-469-674.7-469c-301.7-2.7-543.1,170.1-693.9,496.5c-49.4,107-60.3,181-60.3,405.9c0,244.1,8.2,290.7,74.1,427.9C4535-868.7,4946.4-695.9,5305.7-879.7z"/></g></g>
</svg>