<?xml version="1.0" encoding="utf-8"?>
<!-- Svg Vector Icons : http://www.onlinewebfonts.com/icon -->
<!DOCTYPE svg PUBLIC "-//W3C//DTD SVG 1.1//EN" "http://www.w3.org/Graphics/SVG/1.1/DTD/svg11.dtd">
<svg version="1.1" xmlns="http://www.w3.org/2000/svg" xmlns:xlink="http://www.w3.org/1999/xlink" x="0px" y="0px" viewBox="0 0 1000 1000" enable-background="new 0 0 1000 1000" xml:space="preserve">
<metadata> Svg Vector Icons : http://www.onlinewebfonts.com/icon </metadata>
<g><g transform="translate(0.000000,511.000000) scale(0.100000,-0.100000)"><path d="M4093.6,4710.5C2151.2,4414.9,605.6,2980.7,201,1098C76.6,514.5,66.2-203.8,175.1-758.8c373.4-1906.1,1856.8-3366.1,3773.3-3713.6c368.3-67.4,1218.9-67.4,1581.9,0c523.8,95.9,1039.9,282.7,1498.9,539.4c236,132.2,692.4,461.6,780.6,560.1l49.3,57.1h-536.8H6788l-261.9-132.3c-954.4-477.2-2035.8-555-3054.9-215.2c-964.7,319-1789.4,1027-2256.2,1929.4C706.7-753.6,621.1,333,968.6,1378.1c274.9,829.9,827.3,1550.8,1553.4,2035.7c1327.8,884.3,3052.3,894.7,4393.1,28.5c539.4-347.5,1081.4-944,1340.7-1475.6l72.6-147.8h360.5h357.9l-15.5,59.6c-51.9,168.6-378.6,744.3-565.3,993.3c-697.6,931-1664.9,1548.2-2806,1789.4C5263.2,4744.2,4482.6,4770.1,4093.6,4710.5z"/><path d="M2382,1463.7c-215.3-114.1-251.6-303.4-106.3-575.7c101.1-189.3,256.7-334.5,464.2-435.7c129.7-62.2,176.4-72.6,404.6-72.6c228.2,0,277.5,7.8,407.2,70C3632,486,3751.3,566.4,3816.1,626c129.7,119.3,300.8,427.9,300.8,542c0,163.4-176.3,339.7-337.1,339.7c-127.1,0-241.2-88.2-319-241.2c-77.8-160.8-173.8-230.8-316.4-230.8c-137.4,0-233.4,67.4-311.2,223C2721.7,1481.8,2555.7,1554.4,2382,1463.7z"/><path d="M5545.8,1461.1c-186.7-98.6-223-285.3-106.3-531.6C5647,488.6,6152.7,268.2,6622.1,416c308.6,96,521.3,293,632.8,596.5c67.4,176.4,44.1,298.2-77.8,402c-189.3,158.2-402,98.6-531.6-150.4c-88.2-168.6-176.3-230.8-326.7-228.2c-137.5,2.6-223,67.4-303.4,233.4C5906.3,1489.6,5732.5,1559.6,5545.8,1461.1z"/><path d="M9036.4,1406.6c-298.2-15.6-311.2-18.2-370.8-88.2c-75.2-85.6-83-236-20.8-326.8c57.1-80.4,189.3-132.3,334.5-132.3h119.3l-248.9-363.1c-217.9-324.2-246.4-378.6-246.4-479.8c0-83,18.2-132.3,62.2-186.7l62.2-72.6l472-7.8c329.4-5.2,497.9,0,549.8,23.3c176.3,72.6,202.3,357.9,38.9,464.2c-31.1,20.7-129.7,44.1-217.9,51.9l-163.4,13l246.4,370.8c207.5,313.8,246.4,389,246.4,477.2c0,77.8-18.2,119.3-75.2,178.9c-67.4,64.8-95.9,75.2-228.2,75.2c-83,0-173.8,5.2-202.3,7.8C9365.8,1417,9205,1414.4,9036.4,1406.6z"/><path d="M4464.4-439.8c-153-36.3-373.4-176.3-446-282.7c-49.3-72.6-59.7-114.1-49.3-215.2c13-137.5,67.4-215.3,191.9-267.1c134.8-57,236-44.1,337.1,41.5c158.2,140,355.3,75.2,355.3-116.7c0-114.1-77.8-194.5-189.3-194.5c-163.4,0-339.7-176.3-339.7-337.1s176.3-337.1,339.7-337.1c111.5,0,189.3-80.4,189.3-194.5c0-191.9-197.1-256.7-355.3-116.7c-101.1,85.6-202.3,98.5-337.1,41.5c-124.5-51.9-179-129.7-191.9-267.1c-10.4-101.2,0-142.6,49.3-215.2c129.7-189.3,487.5-334.5,744.3-298.2c181.5,23.3,425.3,153,544.6,287.9c225.6,256.7,274.9,640.6,124.5,951.7l-72.6,147.8l72.6,150.4c150.4,308.6,101.1,692.4-124.5,949.1C5112.7-491.7,4747.1-372.4,4464.4-439.8z"/><path d="M7278.2-538.4c-176.4-54.5-256.7-158.2-256.7-331.9c0-121.9,44.1-207.5,137.4-277.5c62.2-46.7,121.9-57.1,370.8-67.4l295.7-13l-389-583.5c-215.2-321.6-399.4-619.8-412.3-666.5c-51.9-181.5,54.5-373.4,228.2-422.7c121.9-33.7,1234.4-33.7,1356.3,0c197.1,54.5,300.8,280.1,212.7,456.4c-85.6,171.2-155.6,202.3-492.7,217.8l-298.2,13l389,575.7c212.6,316.4,399.4,619.8,414.9,674.3c51.9,189.3-49.3,373.4-228.2,422.7C8497-509.8,7376.7-509.8,7278.2-538.4z"/></g></g>
</svg>