<?xml version="1.0" encoding="utf-8"?>
<!-- Svg Vector Icons : http://www.onlinewebfonts.com/icon -->
<!DOCTYPE svg PUBLIC "-//W3C//DTD SVG 1.1//EN" "http://www.w3.org/Graphics/SVG/1.1/DTD/svg11.dtd">
<svg version="1.1" xmlns="http://www.w3.org/2000/svg" xmlns:xlink="http://www.w3.org/1999/xlink" x="0px" y="0px" viewBox="0 0 1000 1000" enable-background="new 0 0 1000 1000" xml:space="preserve">
<metadata> Svg Vector Icons : http://www.onlinewebfonts.com/icon </metadata>
<g><g transform="translate(0.000000,511.000000) scale(0.100000,-0.100000)"><path d="M4323.8,4976.2c-2054.4-315.4-3689.1-1829.5-4117-3820.7C75.2,538.4,64.2-221.4,179.4-808.4c395-2016,1963.9-3557.4,3990.8-3927.7c386.7-71.3,1286.4-71.3,1673.1,0C7683.8-4401.5,9173.1-3079.4,9708-1307.6c156.3,515.7,192,781.7,192,1415.3c0,633.6-35.7,899.6-192,1415.3C9181.4,3273,7735.9,4575.8,5922.9,4935.1C5530.7,5014.6,4707.8,5033.9,4323.8,4976.2z M5610.2,4274.1c866.7-117.9,1736.2-554,2372.5-1190.4c567.8-567.8,992.9-1352.2,1152-2136.7c101.5-501.9,101.5-1176.7,0-1681.4c-159.1-779-584.2-1566.1-1152-2133.9s-1355-992.9-2133.9-1152c-504.7-101.5-1179.4-101.5-1681.4,0c-1228.8,252.3-2314.9,1069.7-2888.2,2180.5c-537.6,1036.8-628.1,2186-260.6,3291.4C1432.9,2697,2417.6,3681.6,3662.8,4095.8C4310.1,4309.8,4921.8,4367.3,5610.2,4274.1z"/><path d="M2867.4,2348.6c-230.4-79.6-403.2-181-559.5-331.9c-159.1-156.3-326.4-414.2-370.3-573.2l-35.7-123.4l-222.2-11c-263.3-16.5-356.6-54.9-430.6-172.8c-101.5-164.6-49.4-378.5,117.9-480c65.8-41.1,137.1-54.9,301.7-54.9c178.3,0,216.7-8.2,227.7-46.6c8.2-27.4,60.3-142.6,115.2-255.1C2189.9-76,2573.9-386,2979.8-482c504.7-117.9,995.6,24.7,1376.9,400.4c214,214,356.6,482.8,411.4,781.7c38.4,203,87.8,257.8,238.6,257.8c148.1,0,200.2-54.9,235.9-246.9c65.8-351.1,208.5-611.6,463.6-844.8C6290.4-668.5,7165.4-646.5,7724.9-87c175.5,175.5,381.3,518.4,381.3,633.6c0,43.9,32.9,52.1,277,60.3l277,8.2l93.2,101.5c74.1,82.3,93.3,126.2,93.3,213.9c0,260.6-126.2,359.3-480,378.5l-249.6,13.7l-60.4,167.3c-145.4,405.9-521.1,746.1-962.8,877.7c-194.7,57.6-603.4,57.6-800.9,0c-345.6-101.5-691.2-364.8-858.5-650c-71.3-120.7-76.8-123.4-161.8-98.7c-112.5,32.9-419.7,32.9-532.1,0c-85-24.7-90.5-22-175.5,115.2c-178.3,288-501.9,532.1-844.8,633.6C3492.7,2433.6,3089.6,2425.4,2867.4,2348.6z M3640.9,1649.2c266-115.2,444.3-392.2,444.3-691.2c2.7-307.2-159.1-565-438.8-702.2c-131.7-65.8-172.8-71.3-364.8-60.3c-167.3,11-241.4,27.4-340.1,85c-246.9,145.4-384,386.7-384,677.5C2560.2,1509.3,3130.7,1876.9,3640.9,1649.2z M6929.5,1682.1c200.3-57.6,436.1-293.5,491-491c112.5-381.3-49.4-759.8-389.5-929.8c-112.5-57.6-181-71.3-334.6-71.3c-222.2,0-362.1,52.1-521.1,192c-441.6,389.5-277,1127.3,290.8,1302.8C6625.1,1734.2,6751.2,1734.2,6929.5,1682.1z"/><path d="M2675.4-1203.3c-123.4-68.6-203-222.2-181-348.3c24.7-126.2,123.4-238.6,375.8-425.1c408.7-304.5,995.6-551.3,1519.5-644.6c320.9-54.9,913.4-54.9,1234.3,0c614.4,107,1308.3,433.4,1722.5,806.4c203,181,230.4,392.2,71.3,551.3c-148.1,148.1-334.6,139.9-526.6-19.2c-510.2-430.6-1223.3-693.9-1884.3-693.9c-235.9,0-655.5,65.8-877.7,137.1c-268.8,87.8-650.1,285.2-861.2,447.1C2933.2-1137.5,2850.9-1110.1,2675.4-1203.3z"/></g></g>
</svg>