<?xml version="1.0" encoding="utf-8"?>
<!-- Svg Vector Icons : http://www.onlinewebfonts.com/icon -->
<!DOCTYPE svg PUBLIC "-//W3C//DTD SVG 1.1//EN" "http://www.w3.org/Graphics/SVG/1.1/DTD/svg11.dtd">
<svg version="1.1" xmlns="http://www.w3.org/2000/svg" xmlns:xlink="http://www.w3.org/1999/xlink" x="0px" y="0px" viewBox="0 0 1000 1000" enable-background="new 0 0 1000 1000" xml:space="preserve">
<metadata> Svg Vector Icons : http://www.onlinewebfonts.com/icon </metadata>
<g><g transform="translate(0.000000,511.000000) scale(0.100000,-0.100000)"><path d="M4323.8,4976.2c-2054.4-315.4-3689.1-1829.5-4117-3820.7C75.2,538.4,64.2-221.4,179.4-808.4c395-2016,1963.9-3557.4,3990.8-3927.7c386.7-71.3,1286.4-71.3,1673.1,0C7683.8-4401.5,9173.1-3079.4,9708-1307.6c156.3,515.7,192,781.7,192,1415.3c0,633.6-35.7,899.6-192,1415.3C9181.4,3273,7735.9,4575.8,5922.9,4935.1C5530.7,5014.6,4707.8,5033.9,4323.8,4976.2z M5610.2,4274.1c866.7-117.9,1736.2-554,2372.5-1190.4c567.8-567.8,992.9-1352.2,1152-2136.7c101.5-501.9,101.5-1176.7,0-1681.4c-159.1-779-584.2-1566.1-1152-2133.9s-1355-992.9-2133.9-1152c-504.7-101.5-1179.4-101.5-1681.4,0c-1228.8,252.3-2314.9,1069.7-2888.2,2180.5c-537.6,1036.8-628.1,2186-260.6,3291.4C1432.9,2697,2417.6,3681.6,3662.8,4095.8C4310.1,4309.8,4921.8,4367.3,5610.2,4274.1z"/><path d="M3010,1572.4c-518.4-257.8-512.9-976.4,8.2-1253.5c153.6-82.3,449.8-82.3,606.2,0c238.6,126.2,370.3,329.1,389.5,600.7C4049.5,1446.2,3487.3,1811,3010,1572.4z"/><path d="M6391.9,1577.9c-257.8-117.9-411.4-375.8-392.2-658.3c19.2-274.3,145.4-471.8,389.5-600.7c156.3-82.3,452.6-82.3,606.2,0c315.4,167.3,466.3,526.6,359.3,847.5C7223,1566.9,6775.9,1756.2,6391.9,1577.9z"/><path d="M2675.4-1203.3c-200.2-109.7-241.4-351.1-87.8-532.1c205.7-244.1,784.5-584.2,1269.9-746.1c397.7-134.4,710.4-183.8,1149.2-183.8c765.2,0,1429,205.7,2062.6,639.1c414.2,282.5,523.9,460.8,414.2,669.2c-57.6,109.7-200.2,203-309.9,203c-87.8,0-192-57.6-427.9-238.6c-211.2-161.8-592.5-359.3-861.3-447.1c-222.2-71.3-641.8-137.1-877.7-137.1c-235.9,0-655.5,65.8-877.7,137.1c-268.8,87.8-650.1,285.2-861.2,447.1C2933.2-1137.5,2850.9-1110.1,2675.4-1203.3z"/></g></g>
</svg>