<?xml version="1.0" encoding="utf-8"?>
<!-- Svg Vector Icons : http://www.onlinewebfonts.com/icon -->
<!DOCTYPE svg PUBLIC "-//W3C//DTD SVG 1.1//EN" "http://www.w3.org/Graphics/SVG/1.1/DTD/svg11.dtd">
<svg version="1.1" xmlns="http://www.w3.org/2000/svg" xmlns:xlink="http://www.w3.org/1999/xlink" x="0px" y="0px" viewBox="0 0 1000 1000" enable-background="new 0 0 1000 1000" xml:space="preserve">
<metadata> Svg Vector Icons : http://www.onlinewebfonts.com/icon </metadata>
<g><g transform="translate(0.000000,511.000000) scale(0.100000,-0.100000)"><path d="M4780.5,4736c-827.3-103.7-1706.5-453.9-2305.6-920.7l-62.2-49.3l-145.2,215.3c-236,344.9-269.7,383.8-381.2,448.7c-204.9,121.9-464.2,108.9-651-33.7C970.7,4201.7,319.7,3164.3,161.5,2689.7c-160.8-479.8,0-1050.4,407.2-1439.4l160.8-155.6L688,879.5c-28.5-153-41.5-365.7-41.5-770.3c0-479.8,7.8-599.1,57-853.2C1090-2673.6,2557.9-4120.7,4482.2-4470.8c365.7-67.4,1216.3-67.4,1582,0C7804.5-4154.4,9212.7-2904.4,9718.5-1229C9866.3-741.4,9900-489.9,9900,109.2c0,599.1-33.7,850.6-181.5,1338.2c-497.9,1654.6-1864.7,2886.5-3579,3226.3c-215.3,44.1-399.4,59.6-775.4,64.8C5094.3,4743.8,4829.8,4741.2,4780.5,4736z M5563.7,4077.2c575.7-46.7,1045.2-181.5,1550.9-443.5c1050.4-542,1823.2-1569,2061.8-2730.9c96-474.6,96-1112.6,0-1589.8C9026-1423.5,8624-2167.8,8087.2-2704.7c-536.9-536.9-1281.2-938.8-2017.7-1089.3c-477.2-96-1115.2-96-1589.8,0c-1161.9,238.6-2188.9,1011.4-2730.9,2061.8C1396-1052.6,1240.4-279.8,1305.2,430.8c41.5,435.7,23.3,404.6,256.8,404.6c731.4,0,1348.6,544.6,1457.5,1286.4c38.9,259.3,5.2,461.6-142.6,806.6l-111.5,264.5l54.5,49.3c103.7,98.6,446.1,311.2,687.3,430.5c503.1,254.2,1027,383.8,1701.3,425.3C5236.9,4100.6,5397.7,4090.2,5563.7,4077.2z M1891.4,3343.3c108.9-168.6,256.7-430.5,329.4-583.5c127.1-259.4,134.9-287.9,134.9-472c-2.6-158.2-15.6-217.8-70-324.2c-256.7-492.8-840.3-614.7-1237.1-256.7c-184.1,166-274.9,360.5-274.9,593.9c0,158.2,15.6,210.1,106.3,402c119.3,251.6,311.2,565.4,536.8,879.2l158.2,217.8l59.7-75.2C1668.3,3683,1785,3511.9,1891.4,3343.3z"/><path d="M3450,1898.7c-277.5-70-544.6-287.9-661.3-539.4c-116.7-254.2-75.2-446.1,116.7-536.9c176.4-85.6,368.3-7.8,451.3,181.5c70,158.2,181.5,246.4,313.8,246.4c150.4,0,246.4-67.4,321.6-225.6c72.6-155.6,145.2-215.3,287.9-230.8c207.5-25.9,389,158.2,357.9,360.5c-57.1,391.6-464.2,734-897.3,757.3C3634.2,1916.9,3504.5,1911.7,3450,1898.7z"/><path d="M6621.9,1890.9c-308.6-90.8-500.5-249-638-523.9c-75.2-153-93.4-212.7-80.4-285.3c31.1-194.5,204.9-321.6,389-287.9c124.5,23.3,181.5,72.6,261.9,236c83,163.4,166,220.4,324.2,220.4c129.7,0,241.2-88.2,311.2-249c124.5-280.1,482.4-290.5,604.3-15.6c46.7,101.2,49.3,127.1,18.2,230.8c-41.5,155.6-199.7,391.6-316.4,482.4C7246.9,1888.4,6886.4,1966.2,6621.9,1890.9z"/><path d="M4715.6-733.7c-580.9-106.3-1040-303.4-1486-632.8c-233.4-173.8-308.6-259.4-332-376.1c-33.7-184.2,132.3-378.7,321.6-378.7c103.7,0,153,23.3,355.3,181.5c1008.9,783.2,2391.2,783.2,3397.5,0c202.3-158.2,251.6-181.5,355.3-181.5c191.9,0,355.3,194.5,319,381.2c-20.7,116.7-121.9,223-370.9,404.6c-412.4,295.7-936.3,516.1-1442,601.7C5555.9-687,4969.8-687,4715.6-733.7z"/></g></g>
</svg>