<?xml version="1.0" encoding="utf-8"?>
<!-- Svg Vector Icons : http://www.onlinewebfonts.com/icon -->
<!DOCTYPE svg PUBLIC "-//W3C//DTD SVG 1.1//EN" "http://www.w3.org/Graphics/SVG/1.1/DTD/svg11.dtd">
<svg version="1.1" xmlns="http://www.w3.org/2000/svg" xmlns:xlink="http://www.w3.org/1999/xlink" x="0px" y="0px" viewBox="0 0 1000 1000" enable-background="new 0 0 1000 1000" xml:space="preserve">
<metadata> Svg Vector Icons : http://www.onlinewebfonts.com/icon </metadata>
<g><g transform="translate(0.000000,511.000000) scale(0.100000,-0.100000)"><path d="M4686.4,5003.2c-645.1-71.7-1016.8-159.3-1468.1-345.1c-1346-549.6-2394.7-1712.4-2779.7-3082.3C319.1,1156.3,276.6,880.2,260.7,434.2c-42.5-1085.9,257.5-2078.8,902.7-2981.4c212.4-300,767.3-844.2,1080.5-1067.3c416.8-297.4,979.7-565.5,1481.4-711.5c119.5-34.5,244.3-92.9,318.6-151.3c541.6-416.8,1375.2-416.8,1919.5,0c82.3,61.1,228.3,124.8,472.6,201.8c677,215,1322.1,597.4,1834.5,1083.2C9045.7-2457,9515.6-1565,9709.4-476.5c45.1,265.5,45.1,1194.7,0,1460.2c-180.5,1019.5-592,1842.5-1279.7,2559.3c-727.5,756.6-1654,1245.1-2681.4,1409.7C5496.1,4992.6,4858.9,5024.5,4686.4,5003.2z M5814.7,4249.2c1699.1-358.4,2986.7-1725.7,3225.7-3427.5c47.8-321.2,39.8-918.6-10.6-1218.6c-225.7-1311.5-1027.4-2402.7-2200.9-2992.1c-169.9-84.9-233.6-106.2-220.4-74.3c8,23.9,15.9,196.5,15.9,382.3v339.8l207.1,132.7c568.2,374.3,1022.1,900,1269,1468.1c106.2,246.9,111.5,342.5,23.9,491.2C7999.6-434,8230.6-449.9,4999.6-449.9c-2750.4,0-2880.5-2.6-2968.1-50.4c-111.5-58.4-212.4-220.4-212.4-347.8c0-217.7,358.4-838.9,690.3-1202.7c175.2-191.2,504.4-459.3,735.4-600l138.1-84.9l8-371.7c5.3-201.8,0-369-13.3-369c-10.6,0-111.5,47.8-225.7,103.6C2081.9-2834,1280.2-1793.3,1020-606.5C868.7,86.4,911.1,861.6,1139.5,1557.2c111.5,337.2,369,823,597.3,1128.3c669,892,1646,1462.8,2763.7,1616.8C4789.9,4342.1,5512,4312.9,5814.7,4249.2z M3380.2-1517.2c5.3-246.9-2.6-392.9-18.6-392.9c-79.6,0-692.9,692.9-692.9,783.2c0,8,159.3,10.6,353.1,8l350.4-8L3380.2-1517.2z M5947.4-2255.3v-1128.3l-74.3-159.3c-177.9-379.6-544.3-597.4-945.1-562.9c-98.2,7.9-233.6,39.8-302.7,69c-185.8,79.6-395.6,289.4-485.8,488.5l-77,164.6l-8,1099.1c-5.3,605.3-2.6,1115,5.3,1136.3c13.3,29.2,177.9,34.5,950.4,29.2l937.2-8V-2255.3z M7341.2-1129.6c0-87.6-613.3-780.5-690.3-780.5c-29.2,0-37.2,751.3-8,777.9C6664.3-1111,7341.2-1108.3,7341.2-1129.6z"/><path d="M3173.1,2072.2c-313.3-66.4-634.5-337.2-743.4-626.6c-111.5-302.7,45.1-541.6,337.2-507.1c138.1,15.9,204.4,69,289.4,238.9c84.9,164.6,199.1,238.9,350.4,223c135.4-15.9,225.7-90.3,297.4-249.6c127.4-289.4,523-289.4,631.9,0c50.4,127.4,8,286.7-132.7,496.5C3988.1,1971.3,3552.7,2149.2,3173.1,2072.2z"/><path d="M6438.6,2072.2c-363.7-77-679.6-369-772.6-716.8c-108.9-411.5,467.2-597.3,637.2-204.4c69,156.7,161.9,233.6,300,249.6c151.3,15.9,265.5-58.4,350.4-223c82.3-167.3,148.7-223,278.8-238.9c215-29.2,382.3,114.2,382.3,323.9c0,262.8-302.6,639.8-600,754C6839.5,2080.2,6597.9,2104.1,6438.6,2072.2z"/></g></g>
</svg>