<?xml version="1.0" encoding="utf-8"?>
<!-- Svg Vector Icons : http://www.onlinewebfonts.com/icon -->
<!DOCTYPE svg PUBLIC "-//W3C//DTD SVG 1.1//EN" "http://www.w3.org/Graphics/SVG/1.1/DTD/svg11.dtd">
<svg version="1.1" xmlns="http://www.w3.org/2000/svg" xmlns:xlink="http://www.w3.org/1999/xlink" x="0px" y="0px" viewBox="0 0 1000 1000" enable-background="new 0 0 1000 1000" xml:space="preserve">
<metadata> Svg Vector Icons : http://www.onlinewebfonts.com/icon </metadata>
<g><g transform="translate(0.000000,511.000000) scale(0.100000,-0.100000)"><path d="M4342.3,4977.7C2162.3,4645.4,540.6,2973.2,269.5,779.9c-42.5-356.2-16-1063.4,53.2-1409c297.8-1462.2,1204.3-2671.8,2501.7-3336.4c303.1-156.8,938.4-401.4,1039.5-401.4c15.9,0,74.4-34.6,127.6-77.1c584.9-459.9,1438.3-462.6,2023.1,0c53.2,39.9,172.8,93,265.8,117c478.5,122.3,1127.2,444,1555.2,765.6c989,741.7,1640.3,1794.5,1863.6,3009.4c69.1,372.2,69.1,1244.2,0,1621.7c-356.2,1964.6-1847.7,3480-3807,3868.1C5512,5014.9,4714.5,5033.5,4342.3,4977.7z M5302,4326.4c590.2-47.8,1071.4-186.1,1589.8-454.6c739.1-382.8,1342.5-986.3,1725.4-1725.4C9138.2,1141.5,9226,27.5,8869.7-1041.2c-324.3-978.3-1050.1-1831.7-1956.7-2302.3c-159.5-82.4-292.4-146.2-295.1-140.9c-2.7,2.6-2.7,175.4,2.7,380.2l8,372.2l231.3,146.2c289.8,183.4,771,654,962.4,941.1c77.1,117,194.1,324.4,260.5,462.6c101,215.3,117,268.5,103.7,369.6c-16,151.5-82.4,244.6-231.3,321.7l-117,58.5h-2834h-2834l-117-58.5C1904.4-568,1838-661,1822-812.5c-13.3-101.1,2.7-154.2,103.7-369.6c66.5-138.2,183.4-345.6,260.5-462.6c196.7-292.4,675.3-763,962.4-941.1l231.3-146.2l8-372.2c5.3-204.7,5.3-377.5,2.6-380.2c-2.6-5.3-135.6,58.5-295.1,140.9c-720.5,374.8-1326.6,983.6-1704.1,1714.7C867.6-618.5,782.6,484.8,1138.8,1561.5c401.4,1207,1355.8,2161.4,2562.8,2562.8c396.1,130.3,739.1,194.1,1236.2,223.3C4967,4350.3,5131.9,4339.7,5302,4326.4z M3382.6-1509.1c0-263.2-8-385.5-29.3-385.5c-77.1,0-545,513.1-672.6,739.1c-15.9,23.9,61.1,31.9,340.3,31.9h361.6V-1509.1z M5956-2245.5c-8-1108.6-8-1127.2-69.1-1278.7c-74.5-186.1-284.5-406.7-460-491.8c-486.5-233.9-1063.4-23.9-1294.7,467.9l-71.8,151.5l-8,1137.8l-8,1135.2h959.7H5964L5956-2245.5z M7327.8-1155.5c-127.6-226-595.5-739.1-672.6-739.1c-21.3,0-29.2,122.3-29.2,385.5v385.5h361.5C7266.6-1123.6,7343.7-1131.5,7327.8-1155.5z"/><path d="M2821.6,1869.9c-162.2-93.1-220.7-342.9-114.3-486.5c29.2-39.9,162.2-132.9,297.7-204.7c132.9-74.5,244.6-140.9,244.6-148.9c0-8-114.3-77.1-252.6-154.2c-281.8-156.9-340.3-223.3-340.3-385.5c0-140.9,39.9-220.7,148.9-284.5c164.8-101,239.3-79.8,845.4,255.2c311,172.8,576.9,337.6,598.2,372.2c66.5,101,74.4,249.9,16,356.2c-42.5,74.4-146.2,143.6-592.9,393.5C3092.8,1907.1,2965.2,1949.7,2821.6,1869.9z"/><path d="M6338.8,1604c-297.8-164.8-566.3-324.3-595.5-356.2c-39.9-37.2-61.1-101-69.1-202.1c-10.6-140.9-8-151.5,77.1-236.6c50.5-47.9,324.3-215.3,611.5-372.2c555.6-303.1,643.4-329.7,794.9-241.9c167.5,101,212.7,340.3,90.4,486.5c-37.2,45.2-170.2,138.2-292.4,204.7c-122.3,66.5-223.3,130.3-223.3,140.9c0,10.6,93.1,71.8,207.4,132.9c321.7,175.5,377.5,236.6,377.5,422.7c0,101-15.9,132.9-103.7,220.7C7040.7,1976.3,6979.5,1963,6338.8,1604z"/></g></g>
</svg>