<?xml version="1.0" encoding="utf-8"?>
<!-- Svg Vector Icons : http://www.onlinewebfonts.com/icon -->
<!DOCTYPE svg PUBLIC "-//W3C//DTD SVG 1.1//EN" "http://www.w3.org/Graphics/SVG/1.1/DTD/svg11.dtd">
<svg version="1.1" xmlns="http://www.w3.org/2000/svg" xmlns:xlink="http://www.w3.org/1999/xlink" x="0px" y="0px" viewBox="0 0 1000 1000" enable-background="new 0 0 1000 1000" xml:space="preserve">
<metadata> Svg Vector Icons : http://www.onlinewebfonts.com/icon </metadata>
<g><g transform="translate(0.000000,511.000000) scale(0.100000,-0.100000)"><path d="M4322.1,4974.2C2268.5,4658.9,634.5,3145.5,206.8,1155.1C75.2,538.2,64.2-221.3,179.4-808c394.8-2015.1,1960.3-3555.9,3989.1-3926.1c386.6-71.3,1285.8-71.3,1672.4,0c1011.7,183.7,1905.5,652.5,2629.3,1376.3C9194-2633.9,9662.9-1740.2,9846.5-728.5c71.3,386.6,71.3,1285.8,0,1672.4c-244,1343.4-1006.2,2508.6-2130.3,3257.1c-512.7,340-1168,608.7-1795.8,732C5528.4,5012.6,4705.9,5031.8,4322.1,4974.2z M5676.4,4261.4c1307.8-200.1,2467.5-1044.6,3076.2-2240c1165.2-2286.6,19.2-5094-2404.5-5900.1C4815.6-4385.9,3162.3-3999.3,2030-2867c-1645,1647.7-1645,4304.4,0,5949.4C2992.3,4044.8,4308.3,4469.7,5676.4,4261.4z"/><path d="M6375.6,1506c-293.4-164.5-567.5-337.2-608.7-383.8c-98.7-106.9-106.9-309.8-21.9-419.5C5830,593,6923.9-1.9,7036.3-1.9c205.6,0,372.9,189.2,345.5,392.1c-19.2,137.1-112.4,235.8-345.5,359.2c-312.5,164.5-312.5,148-24.7,304.3c301.6,164.5,364.6,238.5,364.6,430.4c0,123.4-11,145.3-101.5,230.3c-87.7,79.5-123.4,93.2-233,93.2C6926.6,1804.8,6844.4,1766.5,6375.6,1506z"/><path d="M3041.7,1591c-526.4-238.5-562-973.3-60.3-1250.2c189.2-104.2,466.1-115.2,638.8-21.9c345.5,183.7,490.8,589.5,331.7,926.7c-76.8,164.5-181,266-345.5,340C3447.5,1659.5,3195.2,1659.5,3041.7,1591z"/><path d="M2652.4-1208.3c-115.2-71.3-181-219.3-156.3-353.7c46.6-255,781.4-740.3,1425.7-943.1c669-208.4,1497-208.4,2165.9,0c644.3,202.9,1379.1,688.1,1425.7,943.1c54.8,293.4-290.6,520.9-529.1,348.2c-46.6-35.6-175.5-128.9-285.1-211.1c-540.1-397.5-1285.8-597.7-1963-529.1c-534.6,54.8-1028.1,238.5-1425.7,529.1c-109.7,82.3-238.5,175.5-285.1,211.1C2918.3-1137,2773-1134.2,2652.4-1208.3z"/></g></g>
</svg>