<?xml version="1.0" encoding="utf-8"?>
<!-- Svg Vector Icons : http://www.onlinewebfonts.com/icon -->
<!DOCTYPE svg PUBLIC "-//W3C//DTD SVG 1.1//EN" "http://www.w3.org/Graphics/SVG/1.1/DTD/svg11.dtd">
<svg version="1.1" xmlns="http://www.w3.org/2000/svg" xmlns:xlink="http://www.w3.org/1999/xlink" x="0px" y="0px" viewBox="0 0 1000 1000" enable-background="new 0 0 1000 1000" xml:space="preserve">
<metadata> Svg Vector Icons : http://www.onlinewebfonts.com/icon </metadata>
<g><g transform="translate(0.000000,511.000000) scale(0.100000,-0.100000)"><path d="M4317.8,4968.6C2266.4,4653.6,634,3141.8,206.7,1153.3C75.2,537.1,64.3-221.6,179.3-807.7c353.3-1804.9,1659.8-3253.8,3407.2-3779.7c517.7-156.1,780.6-191.7,1427-194.5c580.7,0,898.3,38.4,1298.2,158.8c98.6,30.1,142.4,30.1,257.5,0c391.7-101.3,813.5,11,1128.4,295.8c164.3,150.6,241,262.9,325.9,476.6c46.5,109.6,106.8,183.5,268.4,325.9c709.4,619,1292.8,1624.2,1500.9,2585.5c126,586.1,142.4,1325.6,41.1,1895.3c-356.1,1999.4-1906.3,3574.3-3919.4,3971.4C5522.9,5006.9,4701.2,5026.1,4317.8,4968.6z M5602.3,4267.4c865.5-117.8,1733.7-553.3,2369.1-1188.7c446.4-446.4,813.5-1040.8,1010.7-1632.4c482-1454.4,156.1-3021-865.5-4154.9l-126-142.4l-63,101.3c-32.9,57.5-213.7,260.2-402.6,449.2l-339.6,347.9l150.6,145.2c183.5,178,219.1,295.8,136.9,451.9c-57.5,109.6-199.9,202.7-309.5,202.7c-87.7,0-191.7-57.5-427.3-238.3c-210.9-161.6-591.6-358.8-860-446.4c-221.9-71.2-640.9-137-876.5-137c-235.5,0-654.6,65.7-876.4,137c-268.4,87.6-649.1,284.8-860,446.4c-235.5,180.8-339.6,238.3-427.3,238.3c-109.6,0-252-93.1-309.5-202.7c-109.6-208.1,0-386.2,413.6-668.3c369.8-252,786.1-441,1224.3-550.5c93.1-24.6,219.1-139.7,821.7-739.5c388.9-391.7,703.9-717.6,695.7-725.8c-5.5-8.2-156.1-24.6-328.7-41.1c-786-68.5-1574.9,90.4-2297.9,465.6C2293.7-3220.7,1672-2599,1277.6-1837.6C740.8-802.3,650.4,345.3,1017.4,1449.1C1431,2692.6,2414.3,3675.8,3657.7,4089.4C4304.1,4303.1,4914.9,4360.6,5602.3,4267.4z M6960.8-2719.5c328.7-334.2,388.9-410.8,419.1-520.4c104.1-375.2-150.6-706.6-539.6-706.6c-224.6,0-304,60.3-961.4,720.3l-558.7,561.5l134.2,19.2c249.3,35.6,597.1,126,832.6,216.4c128.7,52.1,246.5,93.1,262.9,95.9C6566.4-2333.3,6749.9-2505.9,6960.8-2719.5z"/><path d="M6369.2,1490.2c-309.5-172.5-588.9-345.1-621.7-383.4c-46.6-54.8-63-106.8-63-210.9c0-117.8,10.9-147.9,90.4-224.6c46.6-46.6,328.7-219.1,624.5-380.7c572.4-312.2,662.8-339.6,818.9-249.3c172.5,104.1,219.1,350.6,93.1,501.2c-38.4,46.6-175.3,142.4-301.3,210.9c-126,68.5-230.1,134.2-230.1,145.2c0,11,95.9,74,213.6,136.9c331.4,180.8,388.9,243.8,388.9,435.5c0,104.1-16.4,136.9-106.8,227.3C7097.8,1876.4,7037.5,1862.7,6369.2,1490.2z"/><path d="M3005.9,1569.6c-517.7-257.5-512.2-975.1,8.2-1251.7c153.4-82.2,449.2-82.2,605.3,0c238.3,126,369.8,328.7,388.9,599.8C4043.9,1443.6,3482.4,1807.9,3005.9,1569.6z"/></g></g>
</svg>